<svg width="205" height="205" viewBox="0 0 205 205" fill="none" xmlns="http://www.w3.org/2000/svg">
<g filter="url(#filter0_f_1_1481)">
<circle cx="102.5" cy="102.5" r="52.5" fill="url(#paint0_linear_1_1481)" fill-opacity="0.3"/>
</g>
<path d="M114.254 95.4548C113.315 98.7374 111.555 101.727 109.141 104.141C106.726 106.555 103.737 108.315 100.455 109.255M100.455 70.7457C103.742 71.6758 106.736 73.4325 109.152 75.8482C111.568 78.264 113.324 81.2583 114.254 84.5457M75.7455 84.5457C76.6849 81.2631 78.4448 78.2737 80.8591 75.8594C83.2735 73.445 86.2628 71.6852 89.5454 70.7457M89.5454 109.255C86.2581 108.325 83.2637 106.568 80.848 104.152C78.4322 101.736 76.6755 98.7421 75.7455 95.4548" stroke="white" stroke-width="2" stroke-miterlimit="10"/>
<path d="M114.254 95.4548C113.315 98.7374 111.555 101.727 109.141 104.141C106.726 106.555 103.737 108.315 100.455 109.255M100.455 70.7457C103.742 71.6758 106.736 73.4325 109.152 75.8482C111.568 78.264 113.324 81.2583 114.254 84.5457M75.7455 84.5457C76.6849 81.2631 78.4448 78.2737 80.8591 75.8594C83.2735 73.445 86.2628 71.6852 89.5454 70.7457M89.5454 109.255C86.2581 108.325 83.2637 106.568 80.848 104.152C78.4322 101.736 76.6755 98.7421 75.7455 95.4548" stroke="url(#paint1_linear_1_1481)" stroke-width="2" stroke-miterlimit="10"/>
<path d="M130.454 95.1087C129.348 102.764 125.795 109.856 120.326 115.326C114.857 120.795 107.764 124.348 100.109 125.454M100.109 54.5452C107.764 55.6509 114.857 59.2039 120.326 64.6733C125.795 70.1428 129.348 77.235 130.454 84.8905M59.5452 84.8905C60.6509 77.235 64.2039 70.1428 69.6733 64.6733C75.1428 59.2039 82.2351 55.6509 89.8906 54.5452M89.8906 125.454C82.2351 124.348 75.1428 120.795 69.6733 115.326C64.2039 109.856 60.6509 102.764 59.5452 95.1087" stroke="white" stroke-width="2" stroke-miterlimit="10"/>
<path d="M130.454 95.1087C129.348 102.764 125.795 109.856 120.326 115.326C114.857 120.795 107.764 124.348 100.109 125.454M100.109 54.5452C107.764 55.6509 114.857 59.2039 120.326 64.6733C125.795 70.1428 129.348 77.235 130.454 84.8905M59.5452 84.8905C60.6509 77.235 64.2039 70.1428 69.6733 64.6733C75.1428 59.2039 82.2351 55.6509 89.8906 54.5452M89.8906 125.454C82.2351 124.348 75.1428 120.795 69.6733 115.326C64.2039 109.856 60.6509 102.764 59.5452 95.1087" stroke="url(#paint2_linear_1_1481)" stroke-width="2" stroke-miterlimit="10"/>
<path d="M96.8178 106.363H93.1815C91.1732 106.363 89.5451 107.991 89.5451 110V126.363C89.5451 128.372 91.1732 130 93.1815 130H96.8178C98.8261 130 100.454 128.372 100.454 126.363V110C100.454 107.991 98.8261 106.363 96.8178 106.363Z" stroke="white" stroke-width="2" stroke-miterlimit="10"/>
<path d="M96.8178 106.363H93.1815C91.1732 106.363 89.5451 107.991 89.5451 110V126.363C89.5451 128.372 91.1732 130 93.1815 130H96.8178C98.8261 130 100.454 128.372 100.454 126.363V110C100.454 107.991 98.8261 106.363 96.8178 106.363Z" stroke="url(#paint3_linear_1_1481)" stroke-width="2" stroke-miterlimit="10"/>
<path d="M131.364 84.5452H115C112.992 84.5452 111.364 86.1732 111.364 88.1815V91.8179C111.364 93.8262 112.992 95.4542 115 95.4542H131.364C133.372 95.4542 135 93.8262 135 91.8179V88.1815C135 86.1732 133.372 84.5452 131.364 84.5452Z" stroke="white" stroke-width="2" stroke-miterlimit="10"/>
<path d="M131.364 84.5452H115C112.992 84.5452 111.364 86.1732 111.364 88.1815V91.8179C111.364 93.8262 112.992 95.4542 115 95.4542H131.364C133.372 95.4542 135 93.8262 135 91.8179V88.1815C135 86.1732 133.372 84.5452 131.364 84.5452Z" stroke="url(#paint4_linear_1_1481)" stroke-width="2" stroke-miterlimit="10"/>
<path d="M74.9999 84.5452H58.6364C56.6281 84.5452 55 86.1732 55 88.1815V91.8179C55 93.8262 56.6281 95.4542 58.6364 95.4542H74.9999C77.0083 95.4542 78.6363 93.8262 78.6363 91.8179V88.1815C78.6363 86.1732 77.0083 84.5452 74.9999 84.5452Z" stroke="white" stroke-width="2" stroke-miterlimit="10"/>
<path d="M74.9999 84.5452H58.6364C56.6281 84.5452 55 86.1732 55 88.1815V91.8179C55 93.8262 56.6281 95.4542 58.6364 95.4542H74.9999C77.0083 95.4542 78.6363 93.8262 78.6363 91.8179V88.1815C78.6363 86.1732 77.0083 84.5452 74.9999 84.5452Z" stroke="url(#paint5_linear_1_1481)" stroke-width="2" stroke-miterlimit="10"/>
<path d="M96.8178 50H93.1815C91.1732 50 89.5451 51.6281 89.5451 53.6364V69.9999C89.5451 72.0083 91.1732 73.6363 93.1815 73.6363H96.8178C98.8261 73.6363 100.454 72.0083 100.454 69.9999V53.6364C100.454 51.6281 98.8261 50 96.8178 50Z" stroke="white" stroke-width="2" stroke-miterlimit="10"/>
<path d="M96.8178 50H93.1815C91.1732 50 89.5451 51.6281 89.5451 53.6364V69.9999C89.5451 72.0083 91.1732 73.6363 93.1815 73.6363H96.8178C98.8261 73.6363 100.454 72.0083 100.454 69.9999V53.6364C100.454 51.6281 98.8261 50 96.8178 50Z" stroke="url(#paint6_linear_1_1481)" stroke-width="2" stroke-miterlimit="10"/>
<path d="M56.8181 70.0001V64.5456C56.8181 61.1701 58.159 57.9329 60.5458 55.5461C62.9326 53.1593 66.1699 51.8184 69.5453 51.8184H74.9999" stroke="white" stroke-width="2" stroke-miterlimit="10"/>
<path d="M133.182 70.0001V64.5456C133.182 61.1701 131.841 57.9329 129.454 55.5461C127.067 53.1593 123.83 51.8184 120.454 51.8184H115" stroke="white" stroke-width="2" stroke-miterlimit="10"/>
<path d="M56.8181 110V115.454C56.8181 118.83 58.159 122.067 60.5458 124.454C62.9326 126.841 66.1699 128.182 69.5453 128.182H74.9999" stroke="white" stroke-width="2" stroke-miterlimit="10"/>
<path d="M133.182 110V115.454C133.182 118.83 131.841 122.067 129.454 124.454C127.067 126.841 123.83 128.182 120.454 128.182H115" stroke="white" stroke-width="2" stroke-miterlimit="10"/>
<defs>
<filter id="filter0_f_1_1481" x="0" y="0" width="205" height="205" filterUnits="userSpaceOnUse" color-interpolation-filters="sRGB">
<feFlood flood-opacity="0" result="BackgroundImageFix"/>
<feBlend mode="normal" in="SourceGraphic" in2="BackgroundImageFix" result="shape"/>
<feGaussianBlur stdDeviation="25" result="effect1_foregroundBlur_1_1481"/>
</filter>
<linearGradient id="paint0_linear_1_1481" x1="80.7895" y1="261.167" x2="242.98" y2="86.3596" gradientUnits="userSpaceOnUse">
<stop stop-color="#D59647"/>
<stop offset="0.19" stop-color="#DBA868"/>
<stop offset="0.36" stop-color="#F0E088"/>
<stop offset="0.46" stop-color="#DAA35F"/>
<stop offset="0.54" stop-color="#D59647"/>
<stop offset="0.77" stop-color="#EFE188"/>
<stop offset="0.91" stop-color="#D59647"/>
<stop offset="0.93" stop-color="#BD843E"/>
<stop offset="0.98" stop-color="#805426"/>
<stop offset="1" stop-color="#68421D"/>
</linearGradient>
<linearGradient id="paint1_linear_1_1481" x1="67.6493" y1="115.776" x2="117.156" y2="114.489" gradientUnits="userSpaceOnUse">
<stop stop-color="#D59647"/>
<stop offset="0.19" stop-color="#DBA868"/>
<stop offset="0.36" stop-color="#F0E088"/>
<stop offset="0.46" stop-color="#DAA35F"/>
<stop offset="0.54" stop-color="#D59647"/>
<stop offset="0.66" stop-color="#9A6830"/>
<stop offset="0.77" stop-color="#EFE188"/>
<stop offset="0.91" stop-color="#D59647"/>
<stop offset="0.93" stop-color="#BD843E"/>
<stop offset="0.98" stop-color="#805426"/>
<stop offset="1" stop-color="#68421D"/>
</linearGradient>
<linearGradient id="paint2_linear_1_1481" x1="44.6371" y1="137.463" x2="135.798" y2="135.093" gradientUnits="userSpaceOnUse">
<stop stop-color="#D59647"/>
<stop offset="0.19" stop-color="#DBA868"/>
<stop offset="0.36" stop-color="#F0E088"/>
<stop offset="0.46" stop-color="#DAA35F"/>
<stop offset="0.54" stop-color="#D59647"/>
<stop offset="0.66" stop-color="#9A6830"/>
<stop offset="0.77" stop-color="#EFE188"/>
<stop offset="0.91" stop-color="#D59647"/>
<stop offset="0.93" stop-color="#BD843E"/>
<stop offset="0.98" stop-color="#805426"/>
<stop offset="1" stop-color="#68421D"/>
</linearGradient>
<linearGradient id="paint3_linear_1_1481" x1="87.2516" y1="134.003" x2="101.284" y2="133.834" gradientUnits="userSpaceOnUse">
<stop stop-color="#D59647"/>
<stop offset="0.19" stop-color="#DBA868"/>
<stop offset="0.36" stop-color="#F0E088"/>
<stop offset="0.46" stop-color="#DAA35F"/>
<stop offset="0.54" stop-color="#D59647"/>
<stop offset="0.66" stop-color="#9A6830"/>
<stop offset="0.77" stop-color="#EFE188"/>
<stop offset="0.91" stop-color="#D59647"/>
<stop offset="0.93" stop-color="#BD843E"/>
<stop offset="0.98" stop-color="#805426"/>
<stop offset="1" stop-color="#68421D"/>
</linearGradient>
<linearGradient id="paint4_linear_1_1481" x1="106.394" y1="97.3017" x2="136.706" y2="95.5942" gradientUnits="userSpaceOnUse">
<stop stop-color="#D59647"/>
<stop offset="0.19" stop-color="#DBA868"/>
<stop offset="0.36" stop-color="#F0E088"/>
<stop offset="0.46" stop-color="#DAA35F"/>
<stop offset="0.54" stop-color="#D59647"/>
<stop offset="0.66" stop-color="#9A6830"/>
<stop offset="0.77" stop-color="#EFE188"/>
<stop offset="0.91" stop-color="#D59647"/>
<stop offset="0.93" stop-color="#BD843E"/>
<stop offset="0.98" stop-color="#805426"/>
<stop offset="1" stop-color="#68421D"/>
</linearGradient>
<linearGradient id="paint5_linear_1_1481" x1="50.0306" y1="97.3017" x2="80.3418" y2="95.5942" gradientUnits="userSpaceOnUse">
<stop stop-color="#D59647"/>
<stop offset="0.19" stop-color="#DBA868"/>
<stop offset="0.36" stop-color="#F0E088"/>
<stop offset="0.46" stop-color="#DAA35F"/>
<stop offset="0.54" stop-color="#D59647"/>
<stop offset="0.66" stop-color="#9A6830"/>
<stop offset="0.77" stop-color="#EFE188"/>
<stop offset="0.91" stop-color="#D59647"/>
<stop offset="0.93" stop-color="#BD843E"/>
<stop offset="0.98" stop-color="#805426"/>
<stop offset="1" stop-color="#68421D"/>
</linearGradient>
<linearGradient id="paint6_linear_1_1481" x1="87.2516" y1="77.6392" x2="101.284" y2="77.4708" gradientUnits="userSpaceOnUse">
<stop stop-color="#D59647"/>
<stop offset="0.19" stop-color="#DBA868"/>
<stop offset="0.36" stop-color="#F0E088"/>
<stop offset="0.46" stop-color="#DAA35F"/>
<stop offset="0.54" stop-color="#D59647"/>
<stop offset="0.66" stop-color="#9A6830"/>
<stop offset="0.77" stop-color="#EFE188"/>
<stop offset="0.91" stop-color="#D59647"/>
<stop offset="0.93" stop-color="#BD843E"/>
<stop offset="0.98" stop-color="#805426"/>
<stop offset="1" stop-color="#68421D"/>
</linearGradient>
</defs>
</svg>
