<svg width="205" height="205" viewBox="0 0 205 205" fill="none" xmlns="http://www.w3.org/2000/svg">
<g filter="url(#filter0_f_1_1554)">
<circle cx="102.5" cy="102.5" r="52.5" fill="url(#paint0_linear_1_1554)" fill-opacity="0.3"/>
</g>
<path d="M100.717 61.2157V57.8418H117.229V61.2157C117.229 61.6109 117.386 61.9899 117.666 62.2693C117.946 62.5487 118.326 62.7057 118.722 62.7057H128.468C128.864 62.7057 129.244 62.5487 129.524 62.2693C129.804 61.9899 129.961 61.6109 129.961 61.2157V51.49C129.961 51.0948 129.804 50.7159 129.524 50.4364C129.244 50.157 128.864 50 128.468 50H118.722C118.326 50 117.946 50.157 117.666 50.4364C117.386 50.7159 117.229 51.0948 117.229 51.49V54.8618H100.723V51.49C100.723 51.0948 100.566 50.7159 100.286 50.4364C100.006 50.157 99.6262 50 99.2302 50H89.4778C89.0818 50 88.702 50.157 88.422 50.4364C88.1419 50.7159 87.9847 51.0948 87.9847 51.49V54.8618H71.4811V51.49C71.4811 51.0948 71.3238 50.7159 71.0438 50.4364C70.7638 50.157 70.384 50 69.988 50H60.242C59.846 50 59.4662 50.157 59.1862 50.4364C58.9061 50.7159 58.7488 51.0948 58.7488 51.49V61.2157C58.7488 61.6109 58.9061 61.9899 59.1862 62.2693C59.4662 62.5487 59.846 62.7057 60.242 62.7057H69.988C70.384 62.7057 70.7638 62.5487 71.0438 62.2693C71.3238 61.9899 71.4811 61.6109 71.4811 61.2157V57.8418H82.733C78.4669 61.2902 75.3313 67.2354 73.4222 75.5689C71.7819 82.736 68.7678 87.6786 64.4633 90.2564C62.0203 91.6926 59.2086 92.3817 56.3769 92.2381V88.5343C56.3769 88.1391 56.2195 87.7601 55.9395 87.4807C55.6595 87.2013 55.2797 87.0443 54.8837 87.0443H45.1313C44.7353 87.0443 44.3555 87.2013 44.0755 87.4807C43.7955 87.7601 43.6382 88.1391 43.6382 88.5343V98.26C43.6382 98.6551 43.7955 99.0341 44.0755 99.3136C44.3555 99.593 44.7353 99.75 45.1313 99.75H54.8773C55.2733 99.75 55.6531 99.593 55.9331 99.3136C56.2132 99.0341 56.3705 98.6551 56.3705 98.26V95.2352C56.5838 95.2352 56.8205 95.2501 57.0594 95.2501C60.1849 95.2658 63.256 94.4353 65.9458 92.8469C70.999 89.837 74.493 84.2473 76.3274 76.2331C78.3496 67.4099 81.722 61.5988 86.3529 58.9615C86.875 58.6645 87.4191 58.4076 87.9804 58.193V61.2157C87.9804 61.6109 88.1377 61.9899 88.4177 62.2693C88.6977 62.5487 89.0775 62.7057 89.4735 62.7057H99.2195C99.4159 62.7063 99.6106 62.6681 99.7922 62.5935C99.9739 62.5189 100.139 62.4092 100.278 62.2708C100.417 62.1324 100.528 61.9679 100.603 61.7869C100.678 61.6058 100.717 61.4117 100.717 61.2157ZM53.3906 96.7636H46.6245V90.0243H53.3842V96.7699L53.3906 96.7636ZM97.7306 57.8354V59.7193H90.9709V52.9801H97.7306V57.8418V57.8354ZM120.209 54.8554V52.9737H126.969V59.7193H120.215V54.8618L120.209 54.8554ZM68.4948 57.8354V59.7193H61.7351V52.9801H68.4948V57.8418V57.8354Z" fill="white"/>
<path d="M100.717 61.2157V57.8418H117.229V61.2157C117.229 61.6109 117.386 61.9899 117.666 62.2693C117.946 62.5487 118.326 62.7057 118.722 62.7057H128.468C128.864 62.7057 129.244 62.5487 129.524 62.2693C129.804 61.9899 129.961 61.6109 129.961 61.2157V51.49C129.961 51.0948 129.804 50.7159 129.524 50.4364C129.244 50.157 128.864 50 128.468 50H118.722C118.326 50 117.946 50.157 117.666 50.4364C117.386 50.7159 117.229 51.0948 117.229 51.49V54.8618H100.723V51.49C100.723 51.0948 100.566 50.7159 100.286 50.4364C100.006 50.157 99.6262 50 99.2302 50H89.4778C89.0818 50 88.702 50.157 88.422 50.4364C88.1419 50.7159 87.9847 51.0948 87.9847 51.49V54.8618H71.4811V51.49C71.4811 51.0948 71.3238 50.7159 71.0438 50.4364C70.7638 50.157 70.384 50 69.988 50H60.242C59.846 50 59.4662 50.157 59.1862 50.4364C58.9061 50.7159 58.7488 51.0948 58.7488 51.49V61.2157C58.7488 61.6109 58.9061 61.9899 59.1862 62.2693C59.4662 62.5487 59.846 62.7057 60.242 62.7057H69.988C70.384 62.7057 70.7638 62.5487 71.0438 62.2693C71.3238 61.9899 71.4811 61.6109 71.4811 61.2157V57.8418H82.733C78.4669 61.2902 75.3313 67.2354 73.4222 75.5689C71.7819 82.736 68.7678 87.6786 64.4633 90.2564C62.0203 91.6926 59.2086 92.3817 56.3769 92.2381V88.5343C56.3769 88.1391 56.2195 87.7601 55.9395 87.4807C55.6595 87.2013 55.2797 87.0443 54.8837 87.0443H45.1313C44.7353 87.0443 44.3555 87.2013 44.0755 87.4807C43.7955 87.7601 43.6382 88.1391 43.6382 88.5343V98.26C43.6382 98.6551 43.7955 99.0341 44.0755 99.3136C44.3555 99.593 44.7353 99.75 45.1313 99.75H54.8773C55.2733 99.75 55.6531 99.593 55.9331 99.3136C56.2132 99.0341 56.3705 98.6551 56.3705 98.26V95.2352C56.5838 95.2352 56.8205 95.2501 57.0594 95.2501C60.1849 95.2658 63.256 94.4353 65.9458 92.8469C70.999 89.837 74.493 84.2473 76.3274 76.2331C78.3496 67.4099 81.722 61.5988 86.3529 58.9615C86.875 58.6645 87.4191 58.4076 87.9804 58.193V61.2157C87.9804 61.6109 88.1377 61.9899 88.4177 62.2693C88.6977 62.5487 89.0775 62.7057 89.4735 62.7057H99.2195C99.4159 62.7063 99.6106 62.6681 99.7922 62.5935C99.9739 62.5189 100.139 62.4092 100.278 62.2708C100.417 62.1324 100.528 61.9679 100.603 61.7869C100.678 61.6058 100.717 61.4117 100.717 61.2157ZM53.3906 96.7636H46.6245V90.0243H53.3842V96.7699L53.3906 96.7636ZM97.7306 57.8354V59.7193H90.9709V52.9801H97.7306V57.8418V57.8354ZM120.209 54.8554V52.9737H126.969V59.7193H120.215V54.8618L120.209 54.8554ZM68.4948 57.8354V59.7193H61.7351V52.9801H68.4948V57.8418V57.8354Z" fill="url(#paint1_linear_1_1554)"/>
<path d="M134.094 98.2985L121.475 85.7056L127.584 82.7255C127.836 82.6025 128.049 82.411 128.197 82.1729C128.345 81.9348 128.423 81.6597 128.422 81.3794C128.42 81.0991 128.34 80.8248 128.189 80.5881C128.039 80.3514 127.824 80.1619 127.571 80.0413L95.257 64.6514C94.9792 64.5193 94.6673 64.4761 94.3639 64.5276C94.0605 64.5792 93.7805 64.723 93.5622 64.9395C93.3439 65.156 93.1979 65.4345 93.1443 65.7369C93.0907 66.0393 93.132 66.3509 93.2626 66.6289L108.52 99.0435C108.64 99.2975 108.829 99.5126 109.066 99.664C109.303 99.8154 109.578 99.8969 109.86 99.8991C110.141 99.9014 110.417 99.8242 110.657 99.6766C110.896 99.529 111.089 99.3169 111.212 99.0648L114.199 92.9705L126.816 105.563C126.954 105.702 127.119 105.812 127.3 105.886C127.481 105.961 127.676 106 127.872 106C128.068 106 128.262 105.961 128.443 105.886C128.624 105.812 128.789 105.702 128.927 105.563L134.096 100.406C134.234 100.267 134.344 100.103 134.419 99.9221C134.494 99.7412 134.532 99.5474 134.532 99.3517C134.532 99.156 134.493 98.9623 134.418 98.7816C134.343 98.6008 134.233 98.4367 134.094 98.2985ZM127.869 102.4L114.83 89.386C114.69 89.2463 114.524 89.1358 114.341 89.0609C114.158 88.986 113.961 88.9482 113.764 88.9496C113.681 88.9495 113.599 88.9559 113.518 88.9687C113.284 89.0077 113.062 89.102 112.871 89.2438C112.68 89.3856 112.526 89.5708 112.422 89.784L109.881 94.9629L97.7229 69.1343L123.482 81.3994L118.294 83.9452C118.08 84.0493 117.895 84.2028 117.753 84.393C117.61 84.5831 117.516 84.8044 117.476 85.0385C117.437 85.2725 117.454 85.5125 117.527 85.7385C117.599 85.9645 117.725 86.17 117.893 86.3378L130.935 99.3521L127.869 102.4Z" fill="white"/>
<defs>
<filter id="filter0_f_1_1554" x="0" y="0" width="205" height="205" filterUnits="userSpaceOnUse" color-interpolation-filters="sRGB">
<feFlood flood-opacity="0" result="BackgroundImageFix"/>
<feBlend mode="normal" in="SourceGraphic" in2="BackgroundImageFix" result="shape"/>
<feGaussianBlur stdDeviation="25" result="effect1_foregroundBlur_1_1554"/>
</filter>
<linearGradient id="paint0_linear_1_1554" x1="80.7895" y1="261.167" x2="242.98" y2="86.3596" gradientUnits="userSpaceOnUse">
<stop stop-color="#D59647"/>
<stop offset="0.19" stop-color="#DBA868"/>
<stop offset="0.36" stop-color="#F0E088"/>
<stop offset="0.46" stop-color="#DAA35F"/>
<stop offset="0.54" stop-color="#D59647"/>
<stop offset="0.77" stop-color="#EFE188"/>
<stop offset="0.91" stop-color="#D59647"/>
<stop offset="0.93" stop-color="#BD843E"/>
<stop offset="0.98" stop-color="#805426"/>
<stop offset="1" stop-color="#68421D"/>
</linearGradient>
<linearGradient id="paint1_linear_1_1554" x1="25.4894" y1="108.175" x2="136.316" y2="103.176" gradientUnits="userSpaceOnUse">
<stop stop-color="#D59647"/>
<stop offset="0.19" stop-color="#DBA868"/>
<stop offset="0.36" stop-color="#F0E088"/>
<stop offset="0.46" stop-color="#DAA35F"/>
<stop offset="0.54" stop-color="#D59647"/>
<stop offset="0.66" stop-color="#9A6830"/>
<stop offset="0.77" stop-color="#EFE188"/>
<stop offset="0.91" stop-color="#D59647"/>
<stop offset="0.93" stop-color="#BD843E"/>
<stop offset="0.98" stop-color="#805426"/>
<stop offset="1" stop-color="#68421D"/>
</linearGradient>
</defs>
</svg>
