<svg width="246" height="86" viewBox="0 0 246 86" fill="none" xmlns="http://www.w3.org/2000/svg">
<path d="M34.3567 85.8375H23.368C22.9308 85.8375 22.5116 85.6638 22.2025 85.3547C21.8933 85.0456 21.7197 84.6263 21.7197 84.1892V17.9661H5.88303C5.44285 17.9662 5.0202 17.7936 4.70593 17.4854C4.39167 17.1771 4.21086 16.7579 4.20239 16.3178V6.62189C4.20239 6.17616 4.37946 5.7487 4.69464 5.43353C5.00982 5.11835 5.4373 4.94125 5.88303 4.94125H34.3567C34.5759 4.94121 34.7929 4.98492 34.995 5.06977C35.1971 5.15462 35.3803 5.2789 35.5338 5.4354C35.6873 5.5919 35.808 5.77745 35.8889 5.98118C35.9698 6.18491 36.0093 6.40273 36.005 6.62189V84.1892C36.005 84.6263 35.8314 85.0456 35.5222 85.3547C35.2131 85.6638 34.7939 85.8375 34.3567 85.8375ZM25.0486 82.6055H32.6761V8.33483H7.56365V14.6372H23.368C23.8137 14.6372 24.2412 14.8143 24.5564 15.1294C24.8716 15.4446 25.0486 15.8721 25.0486 16.3178V82.6055Z" fill="url(#paint0_linear_1_1356)"/>
<path d="M33.5156 85.0294H22.5592C22.1135 85.0294 21.686 84.8523 21.3709 84.5372C21.0557 84.222 20.8786 83.7946 20.8786 83.3489V17.1257H4.91267C4.47551 17.1257 4.05625 16.952 3.74713 16.6429C3.43802 16.3338 3.26436 15.9146 3.26436 15.4774V5.78152C3.26006 5.56235 3.29951 5.34453 3.38042 5.1408C3.46133 4.93707 3.58208 4.75152 3.73557 4.59502C3.88906 4.43852 4.0722 4.31419 4.27432 4.22934C4.47644 4.1445 4.69346 4.10083 4.91267 4.10088H33.3863C33.6055 4.10083 33.8226 4.1445 34.0247 4.22934C34.2268 4.31419 34.41 4.43852 34.5635 4.59502C34.7169 4.75152 34.8377 4.93707 34.9186 5.1408C34.9995 5.34453 35.0389 5.56235 35.0346 5.78152V83.3489C35.0366 83.768 34.8819 84.1726 34.6009 84.4835C34.3198 84.7944 33.9328 84.9892 33.5156 85.0294ZM24.2075 81.7975H31.835V7.46211H6.72256V13.9261H22.5592C22.7784 13.926 22.9955 13.9697 23.1976 14.0546C23.3997 14.1394 23.5828 14.2637 23.7363 14.4202C23.8898 14.5767 24.0106 14.7622 24.0915 14.966C24.1724 15.1697 24.2118 15.3875 24.2075 15.6067V81.7975Z" fill="url(#paint1_linear_1_1356)"/>
<path d="M32.6756 84.1891H21.7193C21.2735 84.1891 20.8461 84.0121 20.5309 83.6969C20.2157 83.3817 20.0386 82.9542 20.0386 82.5085V16.3177H4.20197C3.76187 16.3092 3.34267 16.1284 3.03444 15.8142C2.72622 15.4999 2.55358 15.0772 2.55366 14.6371V4.94114C2.54936 4.72197 2.58884 4.50415 2.66975 4.30042C2.75066 4.0967 2.87139 3.91114 3.02488 3.75464C3.17837 3.59815 3.36154 3.47386 3.56365 3.38902C3.76577 3.30417 3.98277 3.26046 4.20197 3.2605H32.6756C32.8948 3.26046 33.1119 3.30417 33.314 3.38902C33.5161 3.47386 33.6993 3.59815 33.8528 3.75464C34.0063 3.91114 34.127 4.0967 34.2079 4.30042C34.2888 4.50415 34.3283 4.72197 34.324 4.94114V82.5085C34.324 82.9487 34.1514 83.3713 33.8432 83.6855C33.535 83.9998 33.1157 84.1806 32.6756 84.1891ZM23.3676 80.9571H30.995V6.62178H5.88261V12.9241H21.7193C21.9385 12.9241 22.1555 12.9677 22.3576 13.0526C22.5597 13.1374 22.7429 13.2618 22.8964 13.4183C23.0499 13.5748 23.1706 13.7603 23.2515 13.964C23.3324 14.1678 23.3719 14.3856 23.3676 14.6048V80.9571Z" fill="url(#paint2_linear_1_1356)"/>
<path d="M31.8354 83.3493H20.879C20.4333 83.3493 20.0058 83.1722 19.6907 82.857C19.3755 82.5418 19.1984 82.1143 19.1984 81.6686V15.4778H3.36174C2.92164 15.4694 2.50243 15.2885 2.19421 14.9743C1.88599 14.66 1.71337 14.2374 1.71345 13.7972V4.10128C1.70915 3.88212 1.74861 3.66429 1.82952 3.46057C1.91043 3.25684 2.03115 3.07128 2.18464 2.91479C2.33813 2.75829 2.5213 2.63396 2.72342 2.54911C2.92554 2.46426 3.14253 2.4206 3.36174 2.42064H31.8354C32.2812 2.42064 32.7086 2.59773 33.0238 2.91291C33.339 3.22809 33.516 3.65555 33.516 4.10128V81.6686C33.516 82.1143 33.339 82.5418 33.0238 82.857C32.7086 83.1722 32.2812 83.3493 31.8354 83.3493ZM22.5273 80.1173H30.1548V5.84652H4.9131V12.1166H20.7498C20.969 12.1165 21.186 12.1602 21.3881 12.245C21.5902 12.3299 21.7734 12.4542 21.9269 12.6107C22.0804 12.7672 22.2011 12.9528 22.282 13.1565C22.3629 13.3602 22.4024 13.578 22.3981 13.7972L22.5273 80.1173Z" fill="url(#paint3_linear_1_1356)"/>
<path d="M30.9946 82.5088H20.0382C19.5924 82.5088 19.165 82.3317 18.8498 82.0166C18.5346 81.7014 18.3576 81.274 18.3576 80.8282V14.6374H2.52088C2.30168 14.6375 2.08465 14.5938 1.88254 14.5089C1.68042 14.4241 1.49725 14.2998 1.34376 14.1433C1.19027 13.9868 1.06954 13.8012 0.988636 13.5975C0.907727 13.3938 0.868272 13.1759 0.87257 12.9568V3.26085C0.868272 3.04169 0.907727 2.82391 0.988636 2.62019C1.06954 2.41646 1.19027 2.23091 1.34376 2.07441C1.49725 1.91791 1.68042 1.79358 1.88254 1.70873C2.08465 1.62388 2.30168 1.58022 2.52088 1.58026H30.9946C31.4403 1.58026 31.8678 1.75731 32.1829 2.07248C32.4981 2.38766 32.6752 2.81512 32.6752 3.26085V80.8282C32.6752 81.274 32.4981 81.7014 32.1829 82.0166C31.8678 82.3317 31.4403 82.5088 30.9946 82.5088ZM21.6865 79.2769H29.3139V5.00614H4.2015V11.2762H20.0382C20.2574 11.2761 20.4744 11.3198 20.6765 11.4046C20.8786 11.4895 21.0618 11.6138 21.2153 11.7703C21.3688 11.9268 21.4895 12.1124 21.5704 12.3161C21.6513 12.5198 21.6908 12.7376 21.6865 12.9568V79.2769Z" fill="url(#paint4_linear_1_1356)"/>
<path d="M30.1546 81.6684H19.1982C18.7525 81.6684 18.325 81.4914 18.0098 81.1762C17.6947 80.861 17.5176 80.4335 17.5176 79.9878V13.797H1.68093C1.2352 13.797 0.807712 13.6199 0.492534 13.3047C0.177355 12.9896 0.000310832 12.5621 0.000310832 12.1164V2.42046C-0.00398627 2.19705 0.0363085 1.97502 0.118842 1.76737C0.201375 1.55972 0.324479 1.37063 0.480969 1.21113C0.637459 1.05163 0.824187 0.924927 1.03023 0.838454C1.23626 0.75198 1.45748 0.707478 1.68093 0.70752H30.1223C30.568 0.70752 30.9955 0.884564 31.3107 1.19974C31.6258 1.51492 31.8029 1.94243 31.8029 2.38816V79.9555C31.8072 80.1762 31.768 80.3955 31.6874 80.6011C31.6069 80.8066 31.4867 80.9944 31.3336 81.1534C31.1805 81.3125 30.9976 81.4399 30.7953 81.5282C30.593 81.6166 30.3753 81.6642 30.1546 81.6684ZM20.8465 78.4364H28.474V4.16575H3.36154V10.4034H19.1982C19.4174 10.4034 19.6344 10.4471 19.8366 10.5319C20.0387 10.6168 20.2218 10.7411 20.3753 10.8976C20.5288 11.0541 20.6495 11.2396 20.7305 11.4434C20.8114 11.6471 20.8508 11.8649 20.8465 12.0841V78.4364Z" fill="url(#paint5_linear_1_1356)"/>
<path d="M30.1554 2.48486V80.0521H19.199V12.1808H1.68176V2.48486H30.1554Z" fill="url(#paint6_linear_1_1356)"/>
<path d="M30.1554 2.48486V80.0521H19.199V12.1808H1.68176V2.48486H30.1554Z" fill="url(#paint7_linear_1_1356)"/>
<path d="M30.1554 2.48486V80.0521H19.199V12.1808H1.68176V2.48486H30.1554Z" fill="url(#paint8_linear_1_1356)"/>
<path d="M226.217 6.87744H218.194V24.071H201V30.9484H218.194V49.2881H226.217V30.9484H245.703V24.071H226.217V6.87744Z" fill="#D9D9D9"/>
<path d="M226.217 6.87744H218.194V24.071H201V30.9484H218.194V49.2881H226.217V30.9484H245.703V24.071H226.217V6.87744Z" fill="url(#paint9_linear_1_1356)"/>
<path d="M230.802 10.3161L226.217 6.87744V24.071H230.802V10.3161Z" fill="#D9D9D9"/>
<path d="M230.802 10.3161L226.217 6.87744V24.071H230.802V10.3161Z" fill="url(#paint10_linear_1_1356)"/>
<path d="M244.557 35.5333L245.703 30.9484H226.217V49.2881H218.194L220.486 52.7268H230.802V35.5333H244.557Z" fill="#D9D9D9"/>
<path d="M244.557 35.5333L245.703 30.9484H226.217V49.2881H218.194L220.486 52.7268H230.802V35.5333H244.557Z" fill="url(#paint11_linear_1_1356)"/>
<path d="M203.292 35.5333L201 30.9484H218.194V35.5333H203.292Z" fill="#D9D9D9"/>
<path d="M203.292 35.5333L201 30.9484H218.194V35.5333H203.292Z" fill="url(#paint12_linear_1_1356)"/>
<path d="M153.68 85.1267C147.687 85.215 141.804 83.5153 136.783 80.2447C131.65 76.7359 127.616 71.8447 125.148 66.1376C119.578 52.2731 119.578 36.7929 125.148 22.9284C127.606 17.2237 131.642 12.3401 136.783 8.85292C141.822 5.64204 147.673 3.93637 153.648 3.93637C159.623 3.93637 165.474 5.64204 170.513 8.85292C175.679 12.3284 179.739 17.2136 182.211 22.9284C187.747 36.7556 187.747 52.1836 182.211 66.0107C179.766 71.7221 175.74 76.6164 170.608 80.1179C165.593 83.4429 159.696 85.1876 153.68 85.1267ZM153.68 7.36294C148.32 7.28183 143.057 8.79341 138.558 11.7061C133.952 14.8614 130.335 19.2584 128.128 24.3867C122.97 37.3442 122.97 51.7851 128.128 64.7427C130.335 69.871 133.952 74.268 138.558 77.4233C143.074 80.2598 148.299 81.7645 153.632 81.7645C158.965 81.7645 164.19 80.2598 168.706 77.4233C173.312 74.268 176.929 69.871 179.136 64.7427C184.294 51.7851 184.294 37.3442 179.136 24.3867C176.929 19.2584 173.312 14.8614 168.706 11.7061C164.24 8.79748 159.009 7.28542 153.68 7.36294ZM153.68 75.4578C150.573 75.4975 147.504 74.7757 144.741 73.3555C141.978 71.9352 139.605 69.8597 137.829 67.3105C133.993 62.0798 132.027 54.4397 132.027 44.6439C132.027 34.8482 133.993 27.2081 137.829 21.9457C139.656 19.4122 142.059 17.349 144.839 15.926C147.62 14.503 150.699 13.7609 153.822 13.7609C156.946 13.7609 160.025 14.503 162.805 15.926C165.586 17.349 167.989 19.4122 169.816 21.9457C173.651 27.2081 175.617 34.8482 175.617 44.6439C175.617 54.4397 173.651 62.048 169.816 67.3105C168.013 69.9004 165.594 72.0012 162.777 73.4234C159.96 74.8457 156.834 75.5448 153.68 75.4578ZM153.68 17.0319C151.056 16.9507 148.455 17.5328 146.116 18.7242C143.778 19.9156 141.778 21.6778 140.301 23.8477C136.878 28.5395 135.134 35.5139 135.134 44.6122C135.134 53.7105 136.878 60.6849 140.301 65.345C141.818 67.4654 143.819 69.1934 146.137 70.3855C148.456 71.5776 151.025 72.1995 153.632 72.1995C156.239 72.1995 158.808 71.5776 161.127 70.3855C163.445 69.1934 165.446 67.4654 166.962 65.345C170.418 60.6532 172.13 53.6788 172.13 44.6122C172.13 35.5456 170.418 28.5395 166.962 23.8477C165.501 21.6854 163.518 19.9269 161.196 18.7355C158.874 17.544 156.288 16.958 153.68 17.0319Z" fill="url(#paint13_linear_1_1356)"/>
<path d="M152.982 84.3025C146.99 84.3907 141.107 82.6911 136.085 79.4205C130.952 75.9118 126.918 71.0204 124.451 65.3133C118.914 51.4862 118.914 36.0581 124.451 22.231C126.919 16.5327 130.953 11.6518 136.085 8.15551C141.138 4.9811 146.984 3.2971 152.95 3.2971C158.917 3.2971 164.763 4.9811 169.816 8.15551C174.947 11.6446 178.973 16.5285 181.418 22.231C186.955 36.0581 186.955 51.4862 181.418 65.3133C178.973 71.0247 174.948 75.919 169.816 79.4205C164.813 82.6825 158.954 84.382 152.982 84.3025ZM152.982 6.53875C147.611 6.43974 142.333 7.95247 137.829 10.8818C133.205 14.0261 129.576 18.4255 127.367 23.5624C122.209 36.52 122.209 50.9609 127.367 63.9184C129.576 69.0554 133.205 73.4548 137.829 76.599C142.339 79.4364 147.559 80.9418 152.887 80.9418C158.215 80.9418 163.435 79.4364 167.945 76.599C172.551 73.4437 176.168 69.0467 178.375 63.9184C183.533 50.9609 183.533 36.52 178.375 23.5624C176.168 18.4342 172.551 14.0371 167.945 10.8818C163.499 7.98181 158.29 6.47001 152.982 6.53875ZM152.982 74.6336C149.841 74.7012 146.732 73.9896 143.933 72.5624C141.133 71.1352 138.731 69.0367 136.941 66.4546C133.105 61.2238 131.172 53.5838 131.172 43.788C131.172 33.9923 133.105 26.3522 136.941 21.0897C138.768 18.5562 141.171 16.493 143.952 15.07C146.732 13.647 149.811 12.905 152.935 12.905C156.058 12.905 159.137 13.647 161.918 15.07C164.698 16.493 167.101 18.5562 168.928 21.0897C172.764 26.3522 174.729 33.9923 174.729 43.788C174.729 53.5838 172.764 61.1921 168.928 66.4546C167.147 69.0231 164.76 71.1131 161.979 72.5397C159.197 73.9663 156.108 74.6854 152.982 74.6336ZM152.982 16.2077C150.368 16.1161 147.772 16.6836 145.434 17.858C143.096 19.0324 141.091 20.7761 139.604 22.9284C136.18 27.6202 134.437 34.5946 134.437 43.6929C134.437 52.7912 136.18 59.7656 139.604 64.4257C141.124 66.5462 143.128 68.274 145.449 69.466C147.77 70.6579 150.341 71.2795 152.95 71.2795C155.56 71.2795 158.131 70.6579 160.452 69.466C162.773 68.274 164.777 66.5462 166.297 64.4257C169.721 59.7339 171.464 52.7595 171.464 43.6929C171.464 34.6263 169.721 27.7153 166.36 22.9284C164.875 20.774 162.871 19.0287 160.532 17.854C158.194 16.6793 155.597 16.1131 152.982 16.2077Z" fill="url(#paint14_linear_1_1356)"/>
<path d="M152.157 83.4783C146.165 83.5666 140.282 81.8668 135.261 78.5962C130.127 75.0875 126.094 70.1962 123.626 64.4891C118.088 50.6731 118.088 35.2544 123.626 21.4384C126.094 15.7313 130.127 10.8401 135.261 7.33128C140.313 4.15687 146.159 2.47282 152.126 2.47282C158.093 2.47282 163.938 4.15687 168.991 7.33128C174.123 10.8328 178.148 15.7271 180.594 21.4384C186.174 35.2461 186.174 50.6814 180.594 64.4891C178.148 70.2004 174.123 75.0947 168.991 78.5962C163.989 81.8583 158.129 83.5578 152.157 83.4783ZM152.157 5.71452C146.807 5.6282 141.553 7.14041 137.067 10.0576C132.442 13.1918 128.821 17.5951 126.638 22.7382C121.439 35.677 121.439 50.1237 126.638 63.0625C128.848 68.189 132.464 72.5853 137.067 75.7431C141.577 78.5805 146.797 80.0859 152.126 80.0859C157.454 80.0859 162.674 78.5805 167.184 75.7431C171.779 72.5763 175.393 68.1827 177.614 63.0625C182.77 50.1155 182.77 35.6852 177.614 22.7382C175.411 17.6072 171.793 13.209 167.184 10.0576C162.72 7.14546 157.487 5.63314 152.157 5.71452ZM152.157 73.8093C149.051 73.849 145.982 73.1273 143.219 71.707C140.456 70.2868 138.082 68.2113 136.307 65.662C132.439 60.3996 130.505 52.7596 130.505 42.9638C130.505 33.168 132.439 25.5279 136.307 20.2655C138.139 17.7442 140.541 15.6922 143.318 14.2774C146.095 12.8626 149.168 12.125 152.284 12.125C155.401 12.125 158.473 12.8626 161.25 14.2774C164.027 15.6922 166.43 17.7442 168.262 20.2655C172.098 25.5279 174.063 33.168 174.063 42.9638C174.063 52.7596 172.098 60.3996 168.262 65.662C166.462 68.2474 164.048 70.3453 161.237 71.7674C158.427 73.1894 155.306 73.891 152.157 73.8093ZM152.157 15.3834C149.534 15.3022 146.933 15.8843 144.594 17.0757C142.256 18.2671 140.256 20.0294 138.779 22.1993C135.356 26.8911 133.612 33.8655 133.612 42.9638C133.612 52.0621 135.356 59.0364 138.779 63.6965C140.3 65.8171 142.303 67.5449 144.624 68.7368C146.945 69.9287 149.517 70.5504 152.126 70.5504C154.735 70.5504 157.306 69.9287 159.627 68.7368C161.948 67.5449 163.952 65.8171 165.472 63.6965C168.896 59.0364 170.639 52.0304 170.639 42.9638C170.639 33.8972 168.896 26.8911 165.472 22.1993C164.004 20.0365 162.014 18.2784 159.687 17.0872C157.36 15.896 154.771 15.3101 152.157 15.3834Z" fill="url(#paint15_linear_1_1356)"/>
<path d="M151.365 82.654C145.363 82.7409 139.471 81.0415 134.436 77.7719C129.304 74.2704 125.279 69.3762 122.834 63.6648C117.253 49.8572 117.253 34.4218 122.834 20.6142C125.279 14.9028 129.304 10.0086 134.436 6.50701C139.489 3.3326 145.335 1.64856 151.302 1.64856C157.269 1.64856 163.114 3.3326 168.167 6.50701C173.299 10.0086 177.324 14.9028 179.77 20.6142C185.35 34.4218 185.35 49.8572 179.77 63.6648C177.324 69.3762 173.299 74.2704 168.167 77.7719C163.174 81.0279 157.326 82.7271 151.365 82.654ZM151.365 4.8902C146.004 4.79948 140.739 6.3118 136.243 9.23329C131.625 12.3755 128.006 16.7764 125.814 21.9139C120.615 34.8527 120.615 49.2994 125.814 62.2382C128.024 67.3647 131.64 71.7609 136.243 74.9188C140.753 77.7562 145.973 79.2616 151.302 79.2616C156.63 79.2616 161.85 77.7562 166.36 74.9188C170.964 71.7609 174.579 67.3647 176.79 62.2382C181.946 49.2912 181.946 34.8609 176.79 21.9139C174.588 16.782 170.971 12.3834 166.36 9.23329C161.905 6.32544 156.684 4.81322 151.365 4.8902ZM151.365 72.985C148.227 73.0562 145.119 72.3495 142.32 70.9279C139.521 69.5063 137.118 67.414 135.324 64.8378C131.457 59.5753 129.523 51.9352 129.523 42.1395C129.523 32.3437 131.457 24.7036 135.324 19.4412C137.156 16.9199 139.559 14.868 142.336 13.4531C145.113 12.0383 148.185 11.3007 151.302 11.3007C154.418 11.3007 157.491 12.0383 160.268 13.4531C163.045 14.868 165.447 16.9199 167.279 19.4412C171.147 24.7036 173.081 32.3437 173.081 42.1395C173.081 51.9352 171.147 59.5753 167.279 64.8378C165.511 67.4102 163.131 69.502 160.353 70.9243C157.574 72.3467 154.486 73.0549 151.365 72.985ZM151.365 14.5592C148.716 14.4538 146.083 15.0241 143.715 16.2165C141.347 17.4088 139.321 19.184 137.829 21.375C134.405 26.0668 132.661 33.0411 132.661 42.1395C132.661 51.2378 134.405 58.2121 137.829 62.904C139.357 65.0124 141.364 66.7288 143.683 67.9123C146.003 69.0958 148.571 69.7128 151.175 69.7128C153.779 69.7128 156.346 69.0958 158.666 67.9123C160.986 66.7288 162.993 65.0124 164.521 62.904C167.945 58.2121 169.689 51.2061 169.689 42.1395C169.689 33.0728 167.945 26.0668 164.521 21.375C163.072 19.231 161.108 17.4841 158.81 16.2935C156.512 15.103 153.953 14.5067 151.365 14.5592Z" fill="url(#paint16_linear_1_1356)"/>
<path d="M150.51 81.8297C144.506 81.8726 138.624 80.1291 133.613 76.8209C128.488 73.358 124.453 68.5094 121.979 62.8405C116.389 49.0235 116.389 33.5751 121.979 19.7582C124.424 14.0468 128.449 9.15254 133.581 5.65099C138.634 2.47658 144.48 0.792542 150.447 0.792542C156.413 0.792542 162.259 2.47658 167.312 5.65099C172.491 9.13443 176.561 14.0305 179.041 19.7582C184.622 33.5658 184.622 49.0012 179.041 62.8088C176.555 68.4975 172.497 73.3585 167.343 76.8209C162.355 80.1276 156.494 81.8715 150.51 81.8297ZM150.51 4.06592C145.149 3.9752 139.884 5.48751 135.388 8.40901C130.785 11.5669 127.169 15.9632 124.958 21.0896C119.76 34.0284 119.76 48.4751 124.958 61.4139C127.151 66.5514 130.77 70.9524 135.388 74.0946C139.898 76.932 145.118 78.4374 150.447 78.4374C155.775 78.4374 160.995 76.932 165.505 74.0946C170.115 70.9445 173.733 66.5459 175.934 61.4139C181.091 48.4669 181.091 34.0366 175.934 21.0896C173.724 15.9632 170.108 11.5669 165.505 8.40901C161.05 5.50116 155.829 3.98894 150.51 4.06592ZM150.51 72.1607C147.415 72.2147 144.353 71.5123 141.591 70.1146C138.828 68.7169 136.449 66.6661 134.659 64.1403C130.792 58.8778 128.858 51.2377 128.858 41.442C128.858 31.6462 130.792 24.0061 134.659 18.7437C136.491 16.2224 138.894 14.1705 141.671 12.7556C144.448 11.3408 147.52 10.6032 150.637 10.6032C153.753 10.6032 156.826 11.3408 159.603 12.7556C162.38 14.1705 164.782 16.2224 166.614 18.7437C170.482 24.0061 172.416 31.6462 172.416 41.442C172.416 51.2377 170.323 58.751 166.361 64.1403C164.584 66.6802 162.208 68.7416 159.442 70.1409C156.677 71.5402 153.608 72.2341 150.51 72.1607ZM150.51 13.7349C147.885 13.6715 145.286 14.261 142.945 15.4507C140.604 16.6404 138.596 18.3929 137.1 20.5507C133.676 25.2425 131.933 32.2169 131.933 41.3152C131.933 50.4135 133.676 57.3879 137.1 62.0797C138.629 64.1882 140.635 65.9045 142.955 67.088C145.275 68.2715 147.842 68.8885 150.447 68.8885C153.051 68.8885 155.618 68.2715 157.938 67.088C160.258 65.9045 162.264 64.1882 163.793 62.0797C167.217 57.3879 168.96 50.3818 168.96 41.3152C168.96 32.2486 167.217 25.2425 163.793 20.5507C162.325 18.3946 160.34 16.641 158.02 15.4503C155.699 14.2596 153.117 13.6698 150.51 13.7349Z" fill="url(#paint17_linear_1_1356)"/>
<path d="M149.717 81.0055C143.715 81.0924 137.822 79.393 132.788 76.1234C127.656 72.6219 123.631 67.7276 121.186 62.0163C115.605 48.2086 115.605 32.7733 121.186 18.9656C123.631 13.2543 127.656 8.36 132.788 4.85845C137.841 1.68404 143.687 0 149.653 0C155.62 0 161.466 1.68404 166.519 4.85845C171.651 8.36 175.676 13.2543 178.121 18.9656C183.702 32.7733 183.702 48.2086 178.121 62.0163C175.676 67.7276 171.651 72.6219 166.519 76.1234C161.528 79.3847 155.678 81.0844 149.717 81.0055ZM149.717 3.24165C144.378 3.16357 139.136 4.67541 134.659 7.58478C130.055 10.7427 126.439 15.1389 124.229 20.2654C119.073 33.2124 119.073 47.6427 124.229 60.5897C126.432 65.7207 130.049 70.1189 134.659 73.2703C139.169 76.1077 144.389 77.6131 149.717 77.6131C155.045 77.6131 160.265 76.1077 164.775 73.2703C169.393 70.1281 173.013 65.7272 175.205 60.5897C180.361 47.6427 180.361 33.2124 175.205 20.2654C172.995 15.1389 169.379 10.7427 164.775 7.58478C160.302 4.66477 155.058 3.15197 149.717 3.24165ZM149.717 71.3365C146.578 71.4077 143.471 70.7009 140.672 69.2793C137.873 67.8577 135.47 65.7655 133.676 63.1892C129.808 57.9268 127.875 50.2867 127.875 40.4909C127.875 30.6951 129.808 23.0551 133.676 17.7927C135.508 15.2714 137.911 13.2194 140.688 11.8046C143.464 10.3897 146.537 9.65218 149.653 9.65218C152.77 9.65218 155.842 10.3897 158.619 11.8046C161.396 13.2194 163.799 15.2714 165.631 17.7927C169.499 23.0551 171.432 30.6951 171.432 40.4909C171.432 50.2867 169.53 57.7999 165.631 63.1892C163.863 65.7616 161.483 67.8534 158.704 69.2758C155.926 70.6982 152.837 71.4064 149.717 71.3365ZM149.717 12.9106C147.089 12.8507 144.488 13.4452 142.147 14.6405C139.806 15.8358 137.799 17.5945 136.307 19.7582C132.883 24.45 131.14 31.4243 131.14 40.5226C131.14 49.621 132.883 56.5953 136.307 61.2871C137.836 63.3956 139.842 65.1119 142.162 66.2954C144.482 67.479 147.049 68.096 149.653 68.096C152.258 68.096 154.825 67.479 157.145 66.2954C159.465 65.1119 161.471 63.3956 163 61.2871C166.424 56.5953 168.167 49.621 168.167 40.5226C168.167 31.4243 166.36 24.4183 163 19.7582C161.536 17.5962 159.553 15.8364 157.232 14.64C154.911 13.4436 152.327 12.849 149.717 12.9106Z" fill="url(#paint18_linear_1_1356)"/>
<path d="M149.717 81.0055C143.715 81.0924 137.822 79.393 132.788 76.1234C127.656 72.6219 123.631 67.7276 121.186 62.0163C115.605 48.2086 115.605 32.7733 121.186 18.9656C123.631 13.2543 127.656 8.36 132.788 4.85845C137.841 1.68404 143.687 0 149.653 0C155.62 0 161.466 1.68404 166.519 4.85845C171.651 8.36 175.676 13.2543 178.121 18.9656C183.702 32.7733 183.702 48.2086 178.121 62.0163C175.676 67.7276 171.651 72.6219 166.519 76.1234C161.528 79.3847 155.678 81.0844 149.717 81.0055ZM149.717 3.24165C144.378 3.16357 139.136 4.67541 134.659 7.58478C130.055 10.7427 126.439 15.1389 124.229 20.2654C119.073 33.2124 119.073 47.6427 124.229 60.5897C126.432 65.7207 130.049 70.1189 134.659 73.2703C139.169 76.1077 144.389 77.6131 149.717 77.6131C155.045 77.6131 160.265 76.1077 164.775 73.2703C169.393 70.1281 173.013 65.7272 175.205 60.5897C180.361 47.6427 180.361 33.2124 175.205 20.2654C172.995 15.1389 169.379 10.7427 164.775 7.58478C160.302 4.66477 155.058 3.15197 149.717 3.24165ZM149.717 71.3365C146.578 71.4077 143.471 70.7009 140.672 69.2793C137.873 67.8577 135.47 65.7655 133.676 63.1892C129.808 57.9268 127.875 50.2867 127.875 40.4909C127.875 30.6951 129.808 23.0551 133.676 17.7927C135.508 15.2714 137.911 13.2194 140.688 11.8046C143.464 10.3897 146.537 9.65218 149.653 9.65218C152.77 9.65218 155.842 10.3897 158.619 11.8046C161.396 13.2194 163.799 15.2714 165.631 17.7927C169.499 23.0551 171.432 30.6951 171.432 40.4909C171.432 50.2867 169.53 57.7999 165.631 63.1892C163.863 65.7616 161.483 67.8534 158.704 69.2758C155.926 70.6982 152.837 71.4064 149.717 71.3365ZM149.717 12.9106C147.089 12.8507 144.488 13.4452 142.147 14.6405C139.806 15.8358 137.799 17.5945 136.307 19.7582C132.883 24.45 131.14 31.4243 131.14 40.5226C131.14 49.621 132.883 56.5953 136.307 61.2871C137.836 63.3956 139.842 65.1119 142.162 66.2954C144.482 67.479 147.049 68.096 149.653 68.096C152.258 68.096 154.825 67.479 157.145 66.2954C159.465 65.1119 161.471 63.3956 163 61.2871C166.424 56.5953 168.167 49.621 168.167 40.5226C168.167 31.4243 166.36 24.4183 163 19.7582C161.536 17.5962 159.553 15.8364 157.232 14.64C154.911 13.4436 152.327 12.849 149.717 12.9106Z" fill="url(#paint19_linear_1_1356)"/>
<path d="M133.676 74.76C128.802 71.4342 124.985 66.7803 122.676 61.3502C117.307 47.9619 117.307 33.0194 122.676 19.6311C124.985 14.201 128.802 9.54707 133.676 6.2213C138.464 3.21624 144.001 1.62222 149.654 1.62222C155.306 1.62222 160.844 3.21624 165.631 6.2213C170.524 9.58115 174.344 14.2813 176.632 19.7579C182 33.1461 182 48.0888 176.632 61.477C174.323 66.9071 170.505 71.5611 165.631 74.8868C160.851 77.91 155.31 79.5147 149.654 79.5147C143.997 79.5147 138.457 77.91 133.676 74.8868V74.76ZM164.332 62.0794C167.977 57.1022 169.816 49.8426 169.816 40.3638C169.816 30.8851 167.977 23.6254 164.332 18.6483C162.654 16.3242 160.449 14.4316 157.897 13.1264C155.345 11.8212 152.52 11.1406 149.654 11.1406C146.788 11.1406 143.962 11.8212 141.411 13.1264C138.859 14.4316 136.653 16.3242 134.976 18.6483C131.33 23.6254 129.523 30.8851 129.523 40.3638C129.523 49.8426 131.33 57.1022 134.976 62.0794C136.653 64.4035 138.859 66.296 141.411 67.6013C143.962 68.9065 146.788 69.5871 149.654 69.5871C152.52 69.5871 155.345 68.9065 157.897 67.6013C160.449 66.296 162.654 64.4035 164.332 62.0794Z" fill="url(#paint20_linear_1_1356)"/>
<path d="M133.676 74.76C128.802 71.4342 124.985 66.7803 122.676 61.3502C117.307 47.9619 117.307 33.0194 122.676 19.6311C124.985 14.201 128.802 9.54707 133.676 6.2213C138.464 3.21624 144.001 1.62222 149.654 1.62222C155.306 1.62222 160.844 3.21624 165.631 6.2213C170.524 9.58115 174.344 14.2813 176.632 19.7579C182 33.1461 182 48.0888 176.632 61.477C174.323 66.9071 170.505 71.5611 165.631 74.8868C160.851 77.91 155.31 79.5147 149.654 79.5147C143.997 79.5147 138.457 77.91 133.676 74.8868V74.76ZM164.332 62.0794C167.977 57.1022 169.816 49.8426 169.816 40.3638C169.816 30.8851 167.977 23.6254 164.332 18.6483C162.654 16.3242 160.449 14.4316 157.897 13.1264C155.345 11.8212 152.52 11.1406 149.654 11.1406C146.788 11.1406 143.962 11.8212 141.411 13.1264C138.859 14.4316 136.653 16.3242 134.976 18.6483C131.33 23.6254 129.523 30.8851 129.523 40.3638C129.523 49.8426 131.33 57.1022 134.976 62.0794C136.653 64.4035 138.859 66.296 141.411 67.6013C143.962 68.9065 146.788 69.5871 149.654 69.5871C152.52 69.5871 155.345 68.9065 157.897 67.6013C160.449 66.296 162.654 64.4035 164.332 62.0794Z" fill="url(#paint21_linear_1_1356)"/>
<path d="M78.6794 85.1267C72.6871 85.215 66.8044 83.5153 61.7825 80.2447C56.6495 76.7359 52.6156 71.8447 50.1481 66.1376C44.5777 52.2731 44.5777 36.7929 50.1481 22.9284C52.6056 17.2237 56.6422 12.3401 61.7825 8.85292C66.8216 5.64204 72.6726 3.93637 78.6477 3.93637C84.6229 3.93637 90.4738 5.64204 95.5129 8.85292C100.679 12.3284 104.739 17.2136 107.211 22.9284C112.747 36.7556 112.747 52.1836 107.211 66.0107C104.766 71.7221 100.74 76.6164 95.608 80.1179C90.593 83.4429 84.6962 85.1876 78.6794 85.1267ZM78.6794 7.36294C73.3201 7.28183 68.0573 8.79341 63.5578 11.7061C58.9518 14.8614 55.3353 19.2584 53.128 24.3867C47.97 37.3442 47.97 51.7851 53.128 64.7427C55.3353 69.871 58.9518 74.268 63.5578 77.4233C68.074 80.2598 73.2988 81.7645 78.6319 81.7645C83.965 81.7645 89.1898 80.2598 93.706 77.4233C98.3119 74.268 101.929 69.871 104.136 64.7427C109.294 51.7851 109.294 37.3442 104.136 24.3867C101.929 19.2584 98.3119 14.8614 93.706 11.7061C89.2399 8.79748 84.0086 7.28542 78.6794 7.36294ZM78.6794 75.4578C75.5729 75.4975 72.5039 74.7757 69.7408 73.3555C66.9777 71.9352 64.6045 69.8597 62.8287 67.3105C58.9928 62.0798 57.0273 54.4397 57.0273 44.6439C57.0273 34.8482 58.9928 27.2081 62.8287 21.9457C64.6557 19.4122 67.0585 17.349 69.8391 15.926C72.6197 14.503 75.6985 13.7609 78.8221 13.7609C81.9457 13.7609 85.0245 14.503 87.8051 15.926C90.5857 17.349 92.9885 19.4122 94.8155 21.9457C98.6514 27.2081 100.617 34.8482 100.617 44.6439C100.617 54.4397 98.6514 62.048 94.8155 67.3105C93.0128 69.9004 90.594 72.0012 87.7772 73.4234C84.9603 74.8457 81.8338 75.5448 78.6794 75.4578ZM78.6794 17.0319C76.0562 16.9507 73.4548 17.5328 71.1163 18.7242C68.7778 19.9156 66.7778 21.6778 65.3014 23.8477C61.8776 28.5395 60.1341 35.5139 60.1341 44.6122C60.1341 53.7105 61.8776 60.6849 65.3014 65.345C66.8181 67.4654 68.8187 69.1934 71.1371 70.3855C73.4556 71.5776 76.0249 72.1995 78.6319 72.1995C81.2389 72.1995 83.8082 71.5776 86.1267 70.3855C88.4451 69.1934 90.4457 67.4654 91.9624 65.345C95.4178 60.6532 97.1297 53.6788 97.1297 44.6122C97.1297 35.5456 95.4178 28.5395 91.9624 23.8477C90.5011 21.6854 88.5175 19.9269 86.1955 18.7355C83.8735 17.544 81.2882 16.958 78.6794 17.0319Z" fill="url(#paint22_linear_1_1356)"/>
<path d="M77.9822 84.3025C71.9899 84.3907 66.1072 82.6911 61.0853 79.4205C55.9522 75.9118 51.9183 71.0204 49.4508 65.3133C43.9143 51.4862 43.9143 36.0581 49.4508 22.231C51.9189 16.5327 55.9533 11.6518 61.0853 8.15551C66.1378 4.9811 71.9836 3.2971 77.9505 3.2971C83.9174 3.2971 89.7632 4.9811 94.8157 8.15551C99.9467 11.6446 103.973 16.5285 106.418 22.231C111.955 36.0581 111.955 51.4862 106.418 65.3133C103.973 71.0247 99.9477 75.919 94.8157 79.4205C89.8134 82.6825 83.9535 84.382 77.9822 84.3025ZM77.9822 6.53875C72.6106 6.43974 67.3325 7.95247 62.8289 10.8818C58.2052 14.0261 54.5757 18.4255 52.3674 23.5624C47.2094 36.52 47.2094 50.9609 52.3674 63.9184C54.5757 69.0554 58.2052 73.4548 62.8289 76.599C67.3389 79.4364 72.5588 80.9418 77.8871 80.9418C83.2154 80.9418 88.4353 79.4364 92.9453 76.599C97.5513 73.4437 101.168 69.0467 103.375 63.9184C108.533 50.9609 108.533 36.52 103.375 23.5624C101.168 18.4342 97.5513 14.0371 92.9453 10.8818C88.4989 7.98181 83.2903 6.47001 77.9822 6.53875ZM77.9822 74.6336C74.8409 74.7012 71.7318 73.9896 68.9326 72.5624C66.1335 71.1352 63.7315 69.0367 61.9412 66.4546C58.1054 61.2238 56.1716 53.5838 56.1716 43.788C56.1716 33.9923 58.1054 26.3522 61.9412 21.0897C63.7683 18.5562 66.171 16.493 68.9516 15.07C71.7322 13.647 74.8111 12.905 77.9346 12.905C81.0582 12.905 84.1371 13.647 86.9177 15.07C89.6983 16.493 92.101 18.5562 93.928 21.0897C97.7639 26.3522 99.7294 33.9923 99.7294 43.788C99.7294 53.5838 97.7639 61.1921 93.928 66.4546C92.1468 69.0231 89.76 71.1131 86.9787 72.5397C84.1975 73.9663 81.1075 74.6854 77.9822 74.6336ZM77.9822 16.2077C75.3676 16.1161 72.7719 16.6836 70.4341 17.858C68.0963 19.0324 66.0915 20.7761 64.6042 22.9284C61.1804 27.6202 59.4368 34.5946 59.4368 43.6929C59.4368 52.7912 61.1804 59.7656 64.6042 64.4257C66.1243 66.5462 68.1279 68.274 70.4488 69.466C72.7698 70.6579 75.3414 71.2795 77.9505 71.2795C80.5596 71.2795 83.1312 70.6579 85.4522 69.466C87.7731 68.274 89.7767 66.5462 91.2968 64.4257C94.7206 59.7339 96.4642 52.7595 96.4642 43.6929C96.4642 34.6263 94.7206 27.7153 91.3602 22.9284C89.875 20.774 87.8706 19.0287 85.5323 17.854C83.194 16.6793 80.5973 16.1131 77.9822 16.2077Z" fill="url(#paint23_linear_1_1356)"/>
<path d="M77.1574 83.4783C71.165 83.5666 65.2824 81.8668 60.2605 78.5962C55.1275 75.0875 51.0935 70.1962 48.626 64.4891C43.0882 50.6731 43.0882 35.2544 48.626 21.4384C51.0935 15.7313 55.1275 10.8401 60.2605 7.33128C65.313 4.15687 71.1588 2.47282 77.1257 2.47282C83.0926 2.47282 88.9384 4.15687 93.9909 7.33128C99.123 10.8328 103.148 15.7271 105.594 21.4384C111.174 35.2461 111.174 50.6814 105.594 64.4891C103.148 70.2004 99.123 75.0947 93.9909 78.5962C88.9887 81.8583 83.1287 83.5578 77.1574 83.4783ZM77.1574 5.71452C71.8073 5.6282 66.5531 7.14041 62.0675 10.0576C57.4422 13.1918 53.8205 17.5951 51.6377 22.7382C46.4393 35.677 46.4393 50.1237 51.6377 63.0625C53.8479 68.189 57.4639 72.5853 62.0675 75.7431C66.5775 78.5805 71.7974 80.0859 77.1257 80.0859C82.454 80.0859 87.6739 78.5805 92.1839 75.7431C96.7794 72.5763 100.393 68.1827 102.614 63.0625C107.77 50.1155 107.77 35.6852 102.614 22.7382C100.411 17.6072 96.7935 13.209 92.1839 10.0576C87.7195 7.14546 82.487 5.63314 77.1574 5.71452ZM77.1574 73.8093C74.0509 73.849 70.9819 73.1273 68.2188 71.707C65.4556 70.2868 63.0824 68.2113 61.3066 65.662C57.4391 60.3996 55.5053 52.7596 55.5053 42.9638C55.5053 33.168 57.4391 25.5279 61.3066 20.2655C63.1387 17.7442 65.5414 15.6922 68.3183 14.2774C71.0952 12.8626 74.1676 12.125 77.2842 12.125C80.4008 12.125 83.4732 12.8626 86.2501 14.2774C89.0271 15.6922 91.4297 17.7442 93.2618 20.2655C97.0976 25.5279 99.0631 33.168 99.0631 42.9638C99.0631 52.7596 97.0976 60.3996 93.2618 65.662C91.462 68.2474 89.0483 70.3453 86.2374 71.7674C83.4265 73.1894 80.3065 73.891 77.1574 73.8093ZM77.1574 15.3834C74.5341 15.3022 71.9328 15.8843 69.5943 17.0757C67.2558 18.2671 65.2557 20.0294 63.7794 22.1993C60.3556 26.8911 58.612 33.8655 58.612 42.9638C58.612 52.0621 60.3556 59.0364 63.7794 63.6965C65.2995 65.8171 67.3031 67.5449 69.624 68.7368C71.945 69.9287 74.5166 70.5504 77.1257 70.5504C79.7348 70.5504 82.3064 69.9287 84.6274 68.7368C86.9483 67.5449 88.9519 65.8171 90.472 63.6965C93.8958 59.0364 95.6394 52.0304 95.6394 42.9638C95.6394 33.8972 93.8958 26.8911 90.472 22.1993C89.0036 20.0365 87.0141 18.2784 84.6871 17.0872C82.3601 15.896 79.7705 15.3101 77.1574 15.3834Z" fill="url(#paint24_linear_1_1356)"/>
<path d="M76.3651 82.654C70.363 82.7409 64.4706 81.0415 59.4365 77.7719C54.3044 74.2704 50.279 69.3762 47.8337 63.6648C42.253 49.8572 42.253 34.4218 47.8337 20.6142C50.279 14.9028 54.3044 10.0086 59.4365 6.50701C64.4889 3.3326 70.3347 1.64856 76.3017 1.64856C82.2686 1.64856 88.1144 3.3326 93.1669 6.50701C98.2989 10.0086 102.324 14.9028 104.77 20.6142C110.35 34.4218 110.35 49.8572 104.77 63.6648C102.324 69.3762 98.2989 74.2704 93.1669 77.7719C88.1736 81.0279 82.3256 82.7271 76.3651 82.654ZM76.3651 4.8902C71.0045 4.79948 65.7389 6.3118 61.2435 9.23329C56.6255 12.3755 53.0057 16.7764 50.8137 21.9139C45.6153 34.8527 45.6153 49.2994 50.8137 62.2382C53.0239 67.3647 56.6398 71.7609 61.2435 74.9188C65.7535 77.7562 70.9734 79.2616 76.3017 79.2616C81.63 79.2616 86.8499 77.7562 91.3599 74.9188C95.9635 71.7609 99.5795 67.3647 101.79 62.2382C106.946 49.2912 106.946 34.8609 101.79 21.9139C99.5885 16.782 95.9706 12.3834 91.3599 9.23329C86.9053 6.32544 81.6842 4.81322 76.3651 4.8902ZM76.3651 72.985C73.2266 73.0562 70.1193 72.3495 67.3204 70.9279C64.5215 69.5063 62.1179 67.414 60.3241 64.8378C56.4565 59.5753 54.5227 51.9352 54.5227 42.1395C54.5227 32.3437 56.4565 24.7036 60.3241 19.4412C62.1561 16.9199 64.5588 14.868 67.3358 13.4531C70.1127 12.0383 73.1851 11.3007 76.3017 11.3007C79.4183 11.3007 82.4906 12.0383 85.2676 13.4531C88.0445 14.868 90.4472 16.9199 92.2792 19.4412C96.1468 24.7036 98.0806 32.3437 98.0806 42.1395C98.0806 51.9352 96.1468 59.5753 92.2792 64.8378C90.5115 67.4102 88.131 69.502 85.3527 70.9243C82.5743 72.3467 79.4855 73.0549 76.3651 72.985ZM76.3651 14.5592C73.7159 14.4538 71.0834 15.0241 68.7153 16.2165C66.3473 17.4088 64.3215 19.184 62.8285 21.375C59.4048 26.0668 57.6612 33.0411 57.6612 42.1395C57.6612 51.2378 59.4048 58.2121 62.8285 62.904C64.3572 65.0124 66.3636 66.7288 68.6835 67.9123C71.0033 69.0958 73.5705 69.7128 76.1749 69.7128C78.7792 69.7128 81.3464 69.0958 83.6663 67.9123C85.9861 66.7288 87.9926 65.0124 89.5212 62.904C92.945 58.2121 94.6886 51.2061 94.6886 42.1395C94.6886 33.0728 92.945 26.0668 89.5212 21.375C88.0715 19.231 86.1082 17.4841 83.8102 16.2935C81.5122 15.103 78.9526 14.5067 76.3651 14.5592Z" fill="url(#paint25_linear_1_1356)"/>
<path d="M75.5099 81.8297C69.5055 81.8726 63.624 80.1291 58.613 76.8209C53.4878 73.358 49.4528 68.5094 46.9785 62.8405C41.3893 49.0235 41.3893 33.5751 46.9785 19.7582C49.4238 14.0468 53.4492 9.15254 58.5813 5.65099C63.6338 2.47658 69.4796 0.792542 75.4465 0.792542C81.4134 0.792542 87.2592 2.47658 92.3117 5.65099C97.4906 9.13443 101.561 14.0305 104.041 19.7582C109.622 33.5658 109.622 49.0012 104.041 62.8088C101.555 68.4975 97.4966 73.3585 92.3434 76.8209C87.3553 80.1276 81.4944 81.8715 75.5099 81.8297ZM75.5099 4.06592C70.1493 3.9752 64.8838 5.48751 60.3883 8.40901C55.7847 11.5669 52.1687 15.9632 49.9585 21.0896C44.7601 34.0284 44.7601 48.4751 49.9585 61.4139C52.1506 66.5514 55.7703 70.9524 60.3883 74.0946C64.8983 76.932 70.1182 78.4374 75.4465 78.4374C80.7748 78.4374 85.9947 76.932 90.5047 74.0946C95.1155 70.9445 98.7333 66.5459 100.934 61.4139C106.091 48.4669 106.091 34.0366 100.934 21.0896C98.7243 15.9632 95.1084 11.5669 90.5047 8.40901C86.0501 5.50116 80.829 3.98894 75.5099 4.06592ZM75.5099 72.1607C72.4146 72.2147 69.3529 71.5123 66.5907 70.1146C63.8284 68.7169 61.4491 66.6661 59.6591 64.1403C55.7916 58.8778 53.8578 51.2377 53.8578 41.442C53.8578 31.6462 55.7916 24.0061 59.6591 18.7437C61.4912 16.2224 63.8938 14.1705 66.6708 12.7556C69.4477 11.3408 72.5201 10.6032 75.6367 10.6032C78.7533 10.6032 81.8257 11.3408 84.6026 12.7556C87.3795 14.1705 89.7823 16.2224 91.6143 18.7437C95.4818 24.0061 97.4156 31.6462 97.4156 41.442C97.4156 51.2377 95.3233 58.751 91.3606 64.1403C89.5845 66.6802 87.2079 68.7416 84.4424 70.1409C81.6769 71.5402 78.6084 72.2341 75.5099 72.1607ZM75.5099 13.7349C72.8851 13.6715 70.2856 14.261 67.945 15.4507C65.6044 16.6404 63.596 18.3929 62.1002 20.5507C58.6764 25.2425 56.9328 32.2169 56.9328 41.3152C56.9328 50.4135 58.6764 57.3879 62.1002 62.0797C63.6288 64.1882 65.6352 65.9045 67.9551 67.088C70.2749 68.2715 72.8422 68.8885 75.4465 68.8885C78.0508 68.8885 80.618 68.2715 82.9379 67.088C85.2578 65.9045 87.2642 64.1882 88.7928 62.0797C92.2166 57.3879 93.9602 50.3818 93.9602 41.3152C93.9602 32.2486 92.2166 25.2425 88.7928 20.5507C87.3252 18.3946 85.3403 16.641 83.0198 15.4503C80.6993 14.2596 78.1173 13.6698 75.5099 13.7349Z" fill="url(#paint26_linear_1_1356)"/>
<path d="M74.7169 81.0055C68.7148 81.0924 62.8224 79.393 57.7883 76.1234C52.6562 72.6219 48.6308 67.7276 46.1855 62.0163C40.6048 48.2086 40.6048 32.7733 46.1855 18.9656C48.6308 13.2543 52.6562 8.36 57.7883 4.85845C62.8407 1.68404 68.6865 0 74.6535 0C80.6204 0 86.4662 1.68404 91.5187 4.85845C96.6507 8.36 100.676 13.2543 103.121 18.9656C108.702 32.7733 108.702 48.2086 103.121 62.0163C100.676 67.7276 96.6507 72.6219 91.5187 76.1234C86.5278 79.3847 80.6782 81.0844 74.7169 81.0055ZM74.7169 3.24165C69.3778 3.16357 64.1361 4.67541 59.6587 7.58478C55.055 10.7427 51.4391 15.1389 49.2289 20.2654C44.0728 33.2124 44.0728 47.6427 49.2289 60.5897C51.4316 65.7207 55.0491 70.1189 59.6587 73.2703C64.1687 76.1077 69.3886 77.6131 74.7169 77.6131C80.0452 77.6131 85.2651 76.1077 89.7751 73.2703C94.3931 70.1281 98.0128 65.7272 100.205 60.5897C105.361 47.6427 105.361 33.2124 100.205 20.2654C97.9947 15.1389 94.3787 10.7427 89.7751 7.58478C85.3025 4.66477 80.0575 3.15197 74.7169 3.24165ZM74.7169 71.3365C71.5784 71.4077 68.4711 70.7009 65.6722 69.2793C62.8733 67.8577 60.4697 65.7655 58.6759 63.1892C54.8083 57.9268 52.8745 50.2867 52.8745 40.4909C52.8745 30.6951 54.8083 23.0551 58.6759 17.7927C60.5079 15.2714 62.9106 13.2194 65.6876 11.8046C68.4645 10.3897 71.5369 9.65218 74.6535 9.65218C77.7701 9.65218 80.8424 10.3897 83.6194 11.8046C86.3963 13.2194 88.799 15.2714 90.631 17.7927C94.4986 23.0551 96.4324 30.6951 96.4324 40.4909C96.4324 50.2867 94.5303 57.7999 90.631 63.1892C88.8633 65.7616 86.4828 67.8534 83.7045 69.2758C80.9261 70.6982 77.8374 71.4064 74.7169 71.3365ZM74.7169 12.9106C72.0892 12.8507 69.4879 13.4452 67.147 14.6405C64.8062 15.8358 62.7993 17.5945 61.3071 19.7582C57.8834 24.45 56.1398 31.4243 56.1398 40.5226C56.1398 49.621 57.8834 56.5953 61.3071 61.2871C62.8357 63.3956 64.8422 65.1119 67.162 66.2954C69.4819 67.479 72.0492 68.096 74.6535 68.096C77.2578 68.096 79.825 67.479 82.1449 66.2954C84.4647 65.1119 86.4712 63.3956 87.9998 61.2871C91.4236 56.5953 93.1671 49.621 93.1671 40.5226C93.1671 31.4243 91.3602 24.4183 87.9998 19.7582C86.5358 17.5962 84.5525 15.8364 82.2318 14.64C79.9111 13.4436 77.3271 12.849 74.7169 12.9106Z" fill="url(#paint27_linear_1_1356)"/>
<path d="M58.6763 74.76C53.8023 71.4342 49.9846 66.7803 47.6758 61.3502C42.3074 47.9619 42.3074 33.0194 47.6758 19.6311C49.9846 14.201 53.8023 9.54707 58.6763 6.2213C63.4636 3.21624 69.0014 1.62222 74.6538 1.62222C80.3062 1.62222 85.844 3.21624 90.6314 6.2213C95.5241 9.58115 99.3437 14.2813 101.632 19.7579C107 33.1461 107 48.0888 101.632 61.477C99.323 66.9071 95.5053 71.5611 90.6314 74.8868C85.8506 77.91 80.3102 79.5147 74.6538 79.5147C68.9974 79.5147 63.457 77.91 58.6763 74.8868V74.76ZM89.3316 62.0794C92.9773 57.1022 94.8159 49.8426 94.8159 40.3638C94.8159 30.8851 92.9773 23.6254 89.3316 18.6483C87.6542 16.3242 85.4488 14.4316 82.897 13.1264C80.3453 11.8212 77.52 11.1406 74.6538 11.1406C71.7876 11.1406 68.9623 11.8212 66.4106 13.1264C63.8588 14.4316 61.6534 16.3242 59.976 18.6483C56.3303 23.6254 54.5233 30.8851 54.5233 40.3638C54.5233 49.8426 56.3303 57.1022 59.976 62.0794C61.6534 64.4035 63.8588 66.296 66.4106 67.6013C68.9623 68.9065 71.7876 69.5871 74.6538 69.5871C77.52 69.5871 80.3453 68.9065 82.897 67.6013C85.4488 66.296 87.6542 64.4035 89.3316 62.0794Z" fill="url(#paint28_linear_1_1356)"/>
<path d="M58.6763 74.76C53.8023 71.4342 49.9846 66.7803 47.6758 61.3502C42.3074 47.9619 42.3074 33.0194 47.6758 19.6311C49.9846 14.201 53.8023 9.54707 58.6763 6.2213C63.4636 3.21624 69.0014 1.62222 74.6538 1.62222C80.3062 1.62222 85.844 3.21624 90.6314 6.2213C95.5241 9.58115 99.3437 14.2813 101.632 19.7579C107 33.1461 107 48.0888 101.632 61.477C99.323 66.9071 95.5053 71.5611 90.6314 74.8868C85.8506 77.91 80.3102 79.5147 74.6538 79.5147C68.9974 79.5147 63.457 77.91 58.6763 74.8868V74.76ZM89.3316 62.0794C92.9773 57.1022 94.8159 49.8426 94.8159 40.3638C94.8159 30.8851 92.9773 23.6254 89.3316 18.6483C87.6542 16.3242 85.4488 14.4316 82.897 13.1264C80.3453 11.8212 77.52 11.1406 74.6538 11.1406C71.7876 11.1406 68.9623 11.8212 66.4106 13.1264C63.8588 14.4316 61.6534 16.3242 59.976 18.6483C56.3303 23.6254 54.5233 30.8851 54.5233 40.3638C54.5233 49.8426 56.3303 57.1022 59.976 62.0794C61.6534 64.4035 63.8588 66.296 66.4106 67.6013C68.9623 68.9065 71.7876 69.5871 74.6538 69.5871C77.52 69.5871 80.3453 68.9065 82.897 67.6013C85.4488 66.296 87.6542 64.4035 89.3316 62.0794Z" fill="url(#paint29_linear_1_1356)"/>
<path d="M58.6763 74.76C53.8023 71.4342 49.9846 66.7803 47.6758 61.3502C42.3074 47.9619 42.3074 33.0194 47.6758 19.6311C49.9846 14.201 53.8023 9.54707 58.6763 6.2213C63.4636 3.21624 69.0014 1.62222 74.6538 1.62222C80.3062 1.62222 85.844 3.21624 90.6314 6.2213C95.5241 9.58115 99.3437 14.2813 101.632 19.7579C107 33.1461 107 48.0888 101.632 61.477C99.323 66.9071 95.5053 71.5611 90.6314 74.8868C85.8506 77.91 80.3102 79.5147 74.6538 79.5147C68.9974 79.5147 63.457 77.91 58.6763 74.8868V74.76ZM89.3316 62.0794C92.9773 57.1022 94.8159 49.8426 94.8159 40.3638C94.8159 30.8851 92.9773 23.6254 89.3316 18.6483C87.6542 16.3242 85.4488 14.4316 82.897 13.1264C80.3453 11.8212 77.52 11.1406 74.6538 11.1406C71.7876 11.1406 68.9623 11.8212 66.4106 13.1264C63.8588 14.4316 61.6534 16.3242 59.976 18.6483C56.3303 23.6254 54.5233 30.8851 54.5233 40.3638C54.5233 49.8426 56.3303 57.1022 59.976 62.0794C61.6534 64.4035 63.8588 66.296 66.4106 67.6013C68.9623 68.9065 71.7876 69.5871 74.6538 69.5871C77.52 69.5871 80.3453 68.9065 82.897 67.6013C85.4488 66.296 87.6542 64.4035 89.3316 62.0794Z" fill="url(#paint30_linear_1_1356)"/>
<defs>
<linearGradient id="paint0_linear_1_1356" x1="20.136" y1="6.68652" x2="20.136" y2="84.1892" gradientUnits="userSpaceOnUse">
<stop stop-color="#DFB47E"/>
<stop offset="0.13" stop-color="#D09245"/>
<stop offset="0.19" stop-color="#AB7637"/>
<stop offset="0.25" stop-color="#8E5F2C"/>
<stop offset="0.3" stop-color="#794F23"/>
<stop offset="0.36" stop-color="#6C451F"/>
<stop offset="0.41" stop-color="#68421D"/>
<stop offset="0.44" stop-color="#6C451F"/>
<stop offset="0.47" stop-color="#784F23"/>
<stop offset="0.51" stop-color="#8D5E2B"/>
<stop offset="0.54" stop-color="#A97436"/>
<stop offset="0.57" stop-color="#CD9044"/>
<stop offset="0.58" stop-color="#D59647"/>
<stop offset="0.67" stop-color="#E0B580"/>
<stop offset="0.71" stop-color="#DEB077"/>
<stop offset="0.77" stop-color="#DAA35F"/>
<stop offset="0.8" stop-color="#D79C52"/>
<stop offset="0.84" stop-color="#BD8746"/>
<stop offset="0.95" stop-color="#805528"/>
<stop offset="1" stop-color="#68421D"/>
</linearGradient>
<linearGradient id="paint1_linear_1_1356" x1="19.2949" y1="5.84614" x2="19.2949" y2="83.3488" gradientUnits="userSpaceOnUse">
<stop stop-color="#DFB47E"/>
<stop offset="0.13" stop-color="#D09245"/>
<stop offset="0.19" stop-color="#AB7637"/>
<stop offset="0.25" stop-color="#8E5F2C"/>
<stop offset="0.3" stop-color="#794F23"/>
<stop offset="0.36" stop-color="#6C451F"/>
<stop offset="0.41" stop-color="#68421D"/>
<stop offset="0.44" stop-color="#6C451F"/>
<stop offset="0.47" stop-color="#784F23"/>
<stop offset="0.51" stop-color="#8D5E2B"/>
<stop offset="0.54" stop-color="#A97436"/>
<stop offset="0.57" stop-color="#CD9044"/>
<stop offset="0.58" stop-color="#D59647"/>
<stop offset="0.67" stop-color="#E0B580"/>
<stop offset="0.71" stop-color="#DEB077"/>
<stop offset="0.77" stop-color="#DAA35F"/>
<stop offset="0.8" stop-color="#D79C52"/>
<stop offset="0.84" stop-color="#BD8746"/>
<stop offset="0.95" stop-color="#805528"/>
<stop offset="1" stop-color="#68421D"/>
</linearGradient>
<linearGradient id="paint2_linear_1_1356" x1="18.455" y1="5.00576" x2="18.455" y2="82.5084" gradientUnits="userSpaceOnUse">
<stop stop-color="#DFB47E"/>
<stop offset="0.13" stop-color="#D09245"/>
<stop offset="0.19" stop-color="#AB7637"/>
<stop offset="0.25" stop-color="#8E5F2C"/>
<stop offset="0.3" stop-color="#794F23"/>
<stop offset="0.36" stop-color="#6C451F"/>
<stop offset="0.41" stop-color="#68421D"/>
<stop offset="0.44" stop-color="#6C451F"/>
<stop offset="0.47" stop-color="#784F23"/>
<stop offset="0.51" stop-color="#8D5E2B"/>
<stop offset="0.54" stop-color="#A97436"/>
<stop offset="0.57" stop-color="#CD9044"/>
<stop offset="0.58" stop-color="#D59647"/>
<stop offset="0.67" stop-color="#E0B580"/>
<stop offset="0.71" stop-color="#DEB077"/>
<stop offset="0.77" stop-color="#DAA35F"/>
<stop offset="0.8" stop-color="#D79C52"/>
<stop offset="0.84" stop-color="#BD8746"/>
<stop offset="0.95" stop-color="#805528"/>
<stop offset="1" stop-color="#68421D"/>
</linearGradient>
<linearGradient id="paint3_linear_1_1356" x1="17.6147" y1="4.1659" x2="17.6147" y2="81.6686" gradientUnits="userSpaceOnUse">
<stop stop-color="#DFB47E"/>
<stop offset="0.13" stop-color="#D09245"/>
<stop offset="0.19" stop-color="#AB7637"/>
<stop offset="0.25" stop-color="#8E5F2C"/>
<stop offset="0.3" stop-color="#794F23"/>
<stop offset="0.36" stop-color="#6C451F"/>
<stop offset="0.41" stop-color="#68421D"/>
<stop offset="0.44" stop-color="#6C451F"/>
<stop offset="0.47" stop-color="#784F23"/>
<stop offset="0.51" stop-color="#8D5E2B"/>
<stop offset="0.54" stop-color="#A97436"/>
<stop offset="0.57" stop-color="#CD9044"/>
<stop offset="0.58" stop-color="#D59647"/>
<stop offset="0.67" stop-color="#E0B580"/>
<stop offset="0.71" stop-color="#DEB077"/>
<stop offset="0.77" stop-color="#DAA35F"/>
<stop offset="0.8" stop-color="#D79C52"/>
<stop offset="0.84" stop-color="#BD8746"/>
<stop offset="0.95" stop-color="#805528"/>
<stop offset="1" stop-color="#68421D"/>
</linearGradient>
<linearGradient id="paint4_linear_1_1356" x1="16.7739" y1="3.32553" x2="16.7739" y2="80.8282" gradientUnits="userSpaceOnUse">
<stop stop-color="#DFB47E"/>
<stop offset="0.13" stop-color="#D09245"/>
<stop offset="0.19" stop-color="#AB7637"/>
<stop offset="0.25" stop-color="#8E5F2C"/>
<stop offset="0.3" stop-color="#794F23"/>
<stop offset="0.36" stop-color="#6C451F"/>
<stop offset="0.41" stop-color="#68421D"/>
<stop offset="0.44" stop-color="#6C451F"/>
<stop offset="0.47" stop-color="#784F23"/>
<stop offset="0.51" stop-color="#8D5E2B"/>
<stop offset="0.54" stop-color="#A97436"/>
<stop offset="0.57" stop-color="#CD9044"/>
<stop offset="0.58" stop-color="#D59647"/>
<stop offset="0.67" stop-color="#E0B580"/>
<stop offset="0.71" stop-color="#DEB077"/>
<stop offset="0.77" stop-color="#DAA35F"/>
<stop offset="0.8" stop-color="#D79C52"/>
<stop offset="0.84" stop-color="#BD8746"/>
<stop offset="0.95" stop-color="#805528"/>
<stop offset="1" stop-color="#68421D"/>
</linearGradient>
<linearGradient id="paint5_linear_1_1356" x1="15.9339" y1="2.4851" x2="15.9339" y2="79.9878" gradientUnits="userSpaceOnUse">
<stop stop-color="#DFB47E"/>
<stop offset="0.13" stop-color="#D09245"/>
<stop offset="0.19" stop-color="#AB7637"/>
<stop offset="0.25" stop-color="#8E5F2C"/>
<stop offset="0.3" stop-color="#794F23"/>
<stop offset="0.36" stop-color="#6C451F"/>
<stop offset="0.41" stop-color="#68421D"/>
<stop offset="0.44" stop-color="#6C451F"/>
<stop offset="0.47" stop-color="#784F23"/>
<stop offset="0.51" stop-color="#8D5E2B"/>
<stop offset="0.54" stop-color="#A97436"/>
<stop offset="0.57" stop-color="#CD9044"/>
<stop offset="0.58" stop-color="#D59647"/>
<stop offset="0.67" stop-color="#E0B580"/>
<stop offset="0.71" stop-color="#DEB077"/>
<stop offset="0.77" stop-color="#DAA35F"/>
<stop offset="0.8" stop-color="#D79C52"/>
<stop offset="0.84" stop-color="#BD8746"/>
<stop offset="0.95" stop-color="#805528"/>
<stop offset="1" stop-color="#68421D"/>
</linearGradient>
<linearGradient id="paint6_linear_1_1356" x1="15.9348" y1="2.48486" x2="15.9348" y2="79.9875" gradientUnits="userSpaceOnUse">
<stop stop-color="#D59647"/>
<stop offset="0.19" stop-color="#DBA868"/>
<stop offset="0.36" stop-color="#E0B580"/>
<stop offset="0.46" stop-color="#DAA35F"/>
<stop offset="0.54" stop-color="#D59647"/>
<stop offset="0.66" stop-color="#9A6830"/>
<stop offset="0.77" stop-color="#68421D"/>
<stop offset="0.91" stop-color="#D59647"/>
<stop offset="0.93" stop-color="#BD843E"/>
<stop offset="0.98" stop-color="#805426"/>
<stop offset="1" stop-color="#68421D"/>
</linearGradient>
<linearGradient id="paint7_linear_1_1356" x1="15.9001" y1="2.48486" x2="15.9001" y2="79.9757" gradientUnits="userSpaceOnUse">
<stop stop-color="#D59647"/>
<stop offset="0.19" stop-color="#DBA868"/>
<stop offset="0.36" stop-color="#E0B580"/>
<stop offset="0.46" stop-color="#DAA35F"/>
<stop offset="0.54" stop-color="#D59647"/>
<stop offset="0.66" stop-color="#9A6830"/>
<stop offset="0.77" stop-color="#68421D"/>
<stop offset="0.91" stop-color="#D59647"/>
<stop offset="0.93" stop-color="#BD843E"/>
<stop offset="0.98" stop-color="#805426"/>
<stop offset="1" stop-color="#68421D"/>
</linearGradient>
<linearGradient id="paint8_linear_1_1356" x1="-4.30461" y1="93.1885" x2="32.3225" y2="92.839" gradientUnits="userSpaceOnUse">
<stop stop-color="#D59647"/>
<stop offset="0.19" stop-color="#DBA868"/>
<stop offset="0.36" stop-color="#F0E088"/>
<stop offset="0.46" stop-color="#DAA35F"/>
<stop offset="0.54" stop-color="#D59647"/>
<stop offset="0.66" stop-color="#9A6830"/>
<stop offset="0.77" stop-color="#EFE188"/>
<stop offset="0.91" stop-color="#D59647"/>
<stop offset="0.93" stop-color="#BD843E"/>
<stop offset="0.98" stop-color="#805426"/>
<stop offset="1" stop-color="#68421D"/>
</linearGradient>
<linearGradient id="paint9_linear_1_1356" x1="223.352" y1="6.87874" x2="223.352" y2="49.2194" gradientUnits="userSpaceOnUse">
<stop stop-color="#D59647"/>
<stop offset="0.19" stop-color="#DBA868"/>
<stop offset="0.36" stop-color="#E0B580"/>
<stop offset="0.46" stop-color="#DAA35F"/>
<stop offset="0.54" stop-color="#D59647"/>
<stop offset="0.66" stop-color="#9A6830"/>
<stop offset="0.77" stop-color="#68421D"/>
<stop offset="0.91" stop-color="#D59647"/>
<stop offset="0.93" stop-color="#BD843E"/>
<stop offset="0.98" stop-color="#805426"/>
<stop offset="1" stop-color="#68421D"/>
</linearGradient>
<linearGradient id="paint10_linear_1_1356" x1="228.51" y1="7.22231" x2="228.51" y2="23.7271" gradientUnits="userSpaceOnUse">
<stop stop-color="#DFB47E"/>
<stop offset="0.13" stop-color="#D09245"/>
<stop offset="0.19" stop-color="#AB7637"/>
<stop offset="0.25" stop-color="#8E5F2C"/>
<stop offset="0.3" stop-color="#794F23"/>
<stop offset="0.36" stop-color="#6C451F"/>
<stop offset="0.41" stop-color="#68421D"/>
<stop offset="0.44" stop-color="#6C451F"/>
<stop offset="0.47" stop-color="#784F23"/>
<stop offset="0.51" stop-color="#8D5E2B"/>
<stop offset="0.54" stop-color="#A97436"/>
<stop offset="0.57" stop-color="#CD9044"/>
<stop offset="0.58" stop-color="#D59647"/>
<stop offset="0.67" stop-color="#E0B580"/>
<stop offset="0.71" stop-color="#DEB077"/>
<stop offset="0.77" stop-color="#DAA35F"/>
<stop offset="0.8" stop-color="#D79C52"/>
<stop offset="0.84" stop-color="#BD8746"/>
<stop offset="0.95" stop-color="#805528"/>
<stop offset="1" stop-color="#68421D"/>
</linearGradient>
<linearGradient id="paint11_linear_1_1356" x1="223.352" y1="31.3852" x2="223.352" y2="52.2913" gradientUnits="userSpaceOnUse">
<stop stop-color="#DFB47E"/>
<stop offset="0.13" stop-color="#D09245"/>
<stop offset="0.19" stop-color="#AB7637"/>
<stop offset="0.25" stop-color="#8E5F2C"/>
<stop offset="0.3" stop-color="#794F23"/>
<stop offset="0.36" stop-color="#6C451F"/>
<stop offset="0.41" stop-color="#68421D"/>
<stop offset="0.44" stop-color="#6C451F"/>
<stop offset="0.47" stop-color="#784F23"/>
<stop offset="0.51" stop-color="#8D5E2B"/>
<stop offset="0.54" stop-color="#A97436"/>
<stop offset="0.57" stop-color="#CD9044"/>
<stop offset="0.58" stop-color="#D59647"/>
<stop offset="0.67" stop-color="#E0B580"/>
<stop offset="0.71" stop-color="#DEB077"/>
<stop offset="0.77" stop-color="#DAA35F"/>
<stop offset="0.8" stop-color="#D79C52"/>
<stop offset="0.84" stop-color="#BD8746"/>
<stop offset="0.95" stop-color="#805528"/>
<stop offset="1" stop-color="#68421D"/>
</linearGradient>
<linearGradient id="paint12_linear_1_1356" x1="223.352" y1="31.3852" x2="223.352" y2="52.2913" gradientUnits="userSpaceOnUse">
<stop stop-color="#DFB47E"/>
<stop offset="0.13" stop-color="#D09245"/>
<stop offset="0.19" stop-color="#AB7637"/>
<stop offset="0.25" stop-color="#8E5F2C"/>
<stop offset="0.3" stop-color="#794F23"/>
<stop offset="0.36" stop-color="#6C451F"/>
<stop offset="0.41" stop-color="#68421D"/>
<stop offset="0.44" stop-color="#6C451F"/>
<stop offset="0.47" stop-color="#784F23"/>
<stop offset="0.51" stop-color="#8D5E2B"/>
<stop offset="0.54" stop-color="#A97436"/>
<stop offset="0.57" stop-color="#CD9044"/>
<stop offset="0.58" stop-color="#D59647"/>
<stop offset="0.67" stop-color="#E0B580"/>
<stop offset="0.71" stop-color="#DEB077"/>
<stop offset="0.77" stop-color="#DAA35F"/>
<stop offset="0.8" stop-color="#D79C52"/>
<stop offset="0.84" stop-color="#BD8746"/>
<stop offset="0.95" stop-color="#805528"/>
<stop offset="1" stop-color="#68421D"/>
</linearGradient>
<linearGradient id="paint13_linear_1_1356" x1="153.775" y1="5.74618" x2="153.775" y2="83.51" gradientUnits="userSpaceOnUse">
<stop stop-color="#DFB47E"/>
<stop offset="0.13" stop-color="#D09245"/>
<stop offset="0.19" stop-color="#AB7637"/>
<stop offset="0.25" stop-color="#8E5F2C"/>
<stop offset="0.3" stop-color="#794F23"/>
<stop offset="0.36" stop-color="#6C451F"/>
<stop offset="0.41" stop-color="#68421D"/>
<stop offset="0.44" stop-color="#6C451F"/>
<stop offset="0.47" stop-color="#784F23"/>
<stop offset="0.51" stop-color="#8D5E2B"/>
<stop offset="0.54" stop-color="#A97436"/>
<stop offset="0.57" stop-color="#CD9044"/>
<stop offset="0.58" stop-color="#D59647"/>
<stop offset="0.67" stop-color="#E0B580"/>
<stop offset="0.71" stop-color="#DEB077"/>
<stop offset="0.77" stop-color="#DAA35F"/>
<stop offset="0.8" stop-color="#D79C52"/>
<stop offset="0.84" stop-color="#BD8746"/>
<stop offset="0.95" stop-color="#805528"/>
<stop offset="1" stop-color="#68421D"/>
</linearGradient>
<linearGradient id="paint14_linear_1_1356" x1="152.95" y1="4.92198" x2="152.95" y2="82.6857" gradientUnits="userSpaceOnUse">
<stop stop-color="#DFB47E"/>
<stop offset="0.13" stop-color="#D09245"/>
<stop offset="0.19" stop-color="#AB7637"/>
<stop offset="0.25" stop-color="#8E5F2C"/>
<stop offset="0.3" stop-color="#794F23"/>
<stop offset="0.36" stop-color="#6C451F"/>
<stop offset="0.41" stop-color="#68421D"/>
<stop offset="0.44" stop-color="#6C451F"/>
<stop offset="0.47" stop-color="#784F23"/>
<stop offset="0.51" stop-color="#8D5E2B"/>
<stop offset="0.54" stop-color="#A97436"/>
<stop offset="0.57" stop-color="#CD9044"/>
<stop offset="0.58" stop-color="#D59647"/>
<stop offset="0.67" stop-color="#E0B580"/>
<stop offset="0.71" stop-color="#DEB077"/>
<stop offset="0.77" stop-color="#DAA35F"/>
<stop offset="0.8" stop-color="#D79C52"/>
<stop offset="0.84" stop-color="#BD8746"/>
<stop offset="0.95" stop-color="#805528"/>
<stop offset="1" stop-color="#68421D"/>
</linearGradient>
<linearGradient id="paint15_linear_1_1356" x1="152.126" y1="4.09771" x2="152.126" y2="81.8615" gradientUnits="userSpaceOnUse">
<stop stop-color="#DFB47E"/>
<stop offset="0.13" stop-color="#D09245"/>
<stop offset="0.19" stop-color="#AB7637"/>
<stop offset="0.25" stop-color="#8E5F2C"/>
<stop offset="0.3" stop-color="#794F23"/>
<stop offset="0.36" stop-color="#6C451F"/>
<stop offset="0.41" stop-color="#68421D"/>
<stop offset="0.44" stop-color="#6C451F"/>
<stop offset="0.47" stop-color="#784F23"/>
<stop offset="0.51" stop-color="#8D5E2B"/>
<stop offset="0.54" stop-color="#A97436"/>
<stop offset="0.57" stop-color="#CD9044"/>
<stop offset="0.58" stop-color="#D59647"/>
<stop offset="0.67" stop-color="#E0B580"/>
<stop offset="0.71" stop-color="#DEB077"/>
<stop offset="0.77" stop-color="#DAA35F"/>
<stop offset="0.8" stop-color="#D79C52"/>
<stop offset="0.84" stop-color="#BD8746"/>
<stop offset="0.95" stop-color="#805528"/>
<stop offset="1" stop-color="#68421D"/>
</linearGradient>
<linearGradient id="paint16_linear_1_1356" x1="151.302" y1="3.27344" x2="151.302" y2="81.0372" gradientUnits="userSpaceOnUse">
<stop stop-color="#DFB47E"/>
<stop offset="0.13" stop-color="#D09245"/>
<stop offset="0.19" stop-color="#AB7637"/>
<stop offset="0.25" stop-color="#8E5F2C"/>
<stop offset="0.3" stop-color="#794F23"/>
<stop offset="0.36" stop-color="#6C451F"/>
<stop offset="0.41" stop-color="#68421D"/>
<stop offset="0.44" stop-color="#6C451F"/>
<stop offset="0.47" stop-color="#784F23"/>
<stop offset="0.51" stop-color="#8D5E2B"/>
<stop offset="0.54" stop-color="#A97436"/>
<stop offset="0.57" stop-color="#CD9044"/>
<stop offset="0.58" stop-color="#D59647"/>
<stop offset="0.67" stop-color="#E0B580"/>
<stop offset="0.71" stop-color="#DEB077"/>
<stop offset="0.77" stop-color="#DAA35F"/>
<stop offset="0.8" stop-color="#D79C52"/>
<stop offset="0.84" stop-color="#BD8746"/>
<stop offset="0.95" stop-color="#805528"/>
<stop offset="1" stop-color="#68421D"/>
</linearGradient>
<linearGradient id="paint17_linear_1_1356" x1="150.478" y1="2.44912" x2="150.478" y2="80.2129" gradientUnits="userSpaceOnUse">
<stop stop-color="#DFB47E"/>
<stop offset="0.13" stop-color="#D09245"/>
<stop offset="0.19" stop-color="#AB7637"/>
<stop offset="0.25" stop-color="#8E5F2C"/>
<stop offset="0.3" stop-color="#794F23"/>
<stop offset="0.36" stop-color="#6C451F"/>
<stop offset="0.41" stop-color="#68421D"/>
<stop offset="0.44" stop-color="#6C451F"/>
<stop offset="0.47" stop-color="#784F23"/>
<stop offset="0.51" stop-color="#8D5E2B"/>
<stop offset="0.54" stop-color="#A97436"/>
<stop offset="0.57" stop-color="#CD9044"/>
<stop offset="0.58" stop-color="#D59647"/>
<stop offset="0.67" stop-color="#E0B580"/>
<stop offset="0.71" stop-color="#DEB077"/>
<stop offset="0.77" stop-color="#DAA35F"/>
<stop offset="0.8" stop-color="#D79C52"/>
<stop offset="0.84" stop-color="#BD8746"/>
<stop offset="0.95" stop-color="#805528"/>
<stop offset="1" stop-color="#68421D"/>
</linearGradient>
<linearGradient id="paint18_linear_1_1356" x1="149.611" y1="0" x2="149.611" y2="80.9288" gradientUnits="userSpaceOnUse">
<stop stop-color="#D59647"/>
<stop offset="0.19" stop-color="#DBA868"/>
<stop offset="0.36" stop-color="#E0B580"/>
<stop offset="0.46" stop-color="#DAA35F"/>
<stop offset="0.54" stop-color="#D59647"/>
<stop offset="0.66" stop-color="#9A6830"/>
<stop offset="0.77" stop-color="#68421D"/>
<stop offset="0.91" stop-color="#D59647"/>
<stop offset="0.93" stop-color="#BD843E"/>
<stop offset="0.98" stop-color="#805426"/>
<stop offset="1" stop-color="#68421D"/>
</linearGradient>
<linearGradient id="paint19_linear_1_1356" x1="103.27" y1="94.7278" x2="187.248" y2="92.9676" gradientUnits="userSpaceOnUse">
<stop stop-color="#D59647"/>
<stop offset="0.19" stop-color="#DBA868"/>
<stop offset="0.36" stop-color="#F0E088"/>
<stop offset="0.46" stop-color="#DAA35F"/>
<stop offset="0.54" stop-color="#D59647"/>
<stop offset="0.66" stop-color="#9A6830"/>
<stop offset="0.77" stop-color="#EFE188"/>
<stop offset="0.91" stop-color="#D59647"/>
<stop offset="0.93" stop-color="#BD843E"/>
<stop offset="0.98" stop-color="#805426"/>
<stop offset="1" stop-color="#68421D"/>
</linearGradient>
<linearGradient id="paint20_linear_1_1356" x1="149.654" y1="1.62461" x2="149.654" y2="79.3884" gradientUnits="userSpaceOnUse">
<stop stop-color="#D59647"/>
<stop offset="0.19" stop-color="#DBA868"/>
<stop offset="0.36" stop-color="#E0B580"/>
<stop offset="0.46" stop-color="#DAA35F"/>
<stop offset="0.54" stop-color="#D59647"/>
<stop offset="0.66" stop-color="#9A6830"/>
<stop offset="0.77" stop-color="#68421D"/>
<stop offset="0.91" stop-color="#D59647"/>
<stop offset="0.93" stop-color="#BD843E"/>
<stop offset="0.98" stop-color="#805426"/>
<stop offset="1" stop-color="#68421D"/>
</linearGradient>
<linearGradient id="paint21_linear_1_1356" x1="149.654" y1="1.62461" x2="149.654" y2="79.3884" gradientUnits="userSpaceOnUse">
<stop stop-color="#D59647"/>
<stop offset="0.19" stop-color="#DBA868"/>
<stop offset="0.36" stop-color="#E0B580"/>
<stop offset="0.46" stop-color="#DAA35F"/>
<stop offset="0.54" stop-color="#D59647"/>
<stop offset="0.66" stop-color="#9A6830"/>
<stop offset="0.77" stop-color="#68421D"/>
<stop offset="0.91" stop-color="#D59647"/>
<stop offset="0.93" stop-color="#BD843E"/>
<stop offset="0.98" stop-color="#805426"/>
<stop offset="1" stop-color="#68421D"/>
</linearGradient>
<linearGradient id="paint22_linear_1_1356" x1="78.7746" y1="5.74618" x2="78.7746" y2="83.51" gradientUnits="userSpaceOnUse">
<stop stop-color="#DFB47E"/>
<stop offset="0.13" stop-color="#D09245"/>
<stop offset="0.19" stop-color="#AB7637"/>
<stop offset="0.25" stop-color="#8E5F2C"/>
<stop offset="0.3" stop-color="#794F23"/>
<stop offset="0.36" stop-color="#6C451F"/>
<stop offset="0.41" stop-color="#68421D"/>
<stop offset="0.44" stop-color="#6C451F"/>
<stop offset="0.47" stop-color="#784F23"/>
<stop offset="0.51" stop-color="#8D5E2B"/>
<stop offset="0.54" stop-color="#A97436"/>
<stop offset="0.57" stop-color="#CD9044"/>
<stop offset="0.58" stop-color="#D59647"/>
<stop offset="0.67" stop-color="#E0B580"/>
<stop offset="0.71" stop-color="#DEB077"/>
<stop offset="0.77" stop-color="#DAA35F"/>
<stop offset="0.8" stop-color="#D79C52"/>
<stop offset="0.84" stop-color="#BD8746"/>
<stop offset="0.95" stop-color="#805528"/>
<stop offset="1" stop-color="#68421D"/>
</linearGradient>
<linearGradient id="paint23_linear_1_1356" x1="77.9505" y1="4.92198" x2="77.9505" y2="82.6857" gradientUnits="userSpaceOnUse">
<stop stop-color="#DFB47E"/>
<stop offset="0.13" stop-color="#D09245"/>
<stop offset="0.19" stop-color="#AB7637"/>
<stop offset="0.25" stop-color="#8E5F2C"/>
<stop offset="0.3" stop-color="#794F23"/>
<stop offset="0.36" stop-color="#6C451F"/>
<stop offset="0.41" stop-color="#68421D"/>
<stop offset="0.44" stop-color="#6C451F"/>
<stop offset="0.47" stop-color="#784F23"/>
<stop offset="0.51" stop-color="#8D5E2B"/>
<stop offset="0.54" stop-color="#A97436"/>
<stop offset="0.57" stop-color="#CD9044"/>
<stop offset="0.58" stop-color="#D59647"/>
<stop offset="0.67" stop-color="#E0B580"/>
<stop offset="0.71" stop-color="#DEB077"/>
<stop offset="0.77" stop-color="#DAA35F"/>
<stop offset="0.8" stop-color="#D79C52"/>
<stop offset="0.84" stop-color="#BD8746"/>
<stop offset="0.95" stop-color="#805528"/>
<stop offset="1" stop-color="#68421D"/>
</linearGradient>
<linearGradient id="paint24_linear_1_1356" x1="77.1257" y1="4.09771" x2="77.1257" y2="81.8615" gradientUnits="userSpaceOnUse">
<stop stop-color="#DFB47E"/>
<stop offset="0.13" stop-color="#D09245"/>
<stop offset="0.19" stop-color="#AB7637"/>
<stop offset="0.25" stop-color="#8E5F2C"/>
<stop offset="0.3" stop-color="#794F23"/>
<stop offset="0.36" stop-color="#6C451F"/>
<stop offset="0.41" stop-color="#68421D"/>
<stop offset="0.44" stop-color="#6C451F"/>
<stop offset="0.47" stop-color="#784F23"/>
<stop offset="0.51" stop-color="#8D5E2B"/>
<stop offset="0.54" stop-color="#A97436"/>
<stop offset="0.57" stop-color="#CD9044"/>
<stop offset="0.58" stop-color="#D59647"/>
<stop offset="0.67" stop-color="#E0B580"/>
<stop offset="0.71" stop-color="#DEB077"/>
<stop offset="0.77" stop-color="#DAA35F"/>
<stop offset="0.8" stop-color="#D79C52"/>
<stop offset="0.84" stop-color="#BD8746"/>
<stop offset="0.95" stop-color="#805528"/>
<stop offset="1" stop-color="#68421D"/>
</linearGradient>
<linearGradient id="paint25_linear_1_1356" x1="76.3017" y1="3.27344" x2="76.3017" y2="81.0372" gradientUnits="userSpaceOnUse">
<stop stop-color="#DFB47E"/>
<stop offset="0.13" stop-color="#D09245"/>
<stop offset="0.19" stop-color="#AB7637"/>
<stop offset="0.25" stop-color="#8E5F2C"/>
<stop offset="0.3" stop-color="#794F23"/>
<stop offset="0.36" stop-color="#6C451F"/>
<stop offset="0.41" stop-color="#68421D"/>
<stop offset="0.44" stop-color="#6C451F"/>
<stop offset="0.47" stop-color="#784F23"/>
<stop offset="0.51" stop-color="#8D5E2B"/>
<stop offset="0.54" stop-color="#A97436"/>
<stop offset="0.57" stop-color="#CD9044"/>
<stop offset="0.58" stop-color="#D59647"/>
<stop offset="0.67" stop-color="#E0B580"/>
<stop offset="0.71" stop-color="#DEB077"/>
<stop offset="0.77" stop-color="#DAA35F"/>
<stop offset="0.8" stop-color="#D79C52"/>
<stop offset="0.84" stop-color="#BD8746"/>
<stop offset="0.95" stop-color="#805528"/>
<stop offset="1" stop-color="#68421D"/>
</linearGradient>
<linearGradient id="paint26_linear_1_1356" x1="75.4782" y1="2.44912" x2="75.4782" y2="80.2129" gradientUnits="userSpaceOnUse">
<stop stop-color="#DFB47E"/>
<stop offset="0.13" stop-color="#D09245"/>
<stop offset="0.19" stop-color="#AB7637"/>
<stop offset="0.25" stop-color="#8E5F2C"/>
<stop offset="0.3" stop-color="#794F23"/>
<stop offset="0.36" stop-color="#6C451F"/>
<stop offset="0.41" stop-color="#68421D"/>
<stop offset="0.44" stop-color="#6C451F"/>
<stop offset="0.47" stop-color="#784F23"/>
<stop offset="0.51" stop-color="#8D5E2B"/>
<stop offset="0.54" stop-color="#A97436"/>
<stop offset="0.57" stop-color="#CD9044"/>
<stop offset="0.58" stop-color="#D59647"/>
<stop offset="0.67" stop-color="#E0B580"/>
<stop offset="0.71" stop-color="#DEB077"/>
<stop offset="0.77" stop-color="#DAA35F"/>
<stop offset="0.8" stop-color="#D79C52"/>
<stop offset="0.84" stop-color="#BD8746"/>
<stop offset="0.95" stop-color="#805528"/>
<stop offset="1" stop-color="#68421D"/>
</linearGradient>
<linearGradient id="paint27_linear_1_1356" x1="74.6535" y1="1.62488" x2="74.6535" y2="79.3887" gradientUnits="userSpaceOnUse">
<stop stop-color="#DFB47E"/>
<stop offset="0.13" stop-color="#D09245"/>
<stop offset="0.19" stop-color="#AB7637"/>
<stop offset="0.25" stop-color="#8E5F2C"/>
<stop offset="0.3" stop-color="#794F23"/>
<stop offset="0.36" stop-color="#6C451F"/>
<stop offset="0.41" stop-color="#68421D"/>
<stop offset="0.44" stop-color="#6C451F"/>
<stop offset="0.47" stop-color="#784F23"/>
<stop offset="0.51" stop-color="#8D5E2B"/>
<stop offset="0.54" stop-color="#A97436"/>
<stop offset="0.57" stop-color="#CD9044"/>
<stop offset="0.58" stop-color="#D59647"/>
<stop offset="0.67" stop-color="#E0B580"/>
<stop offset="0.71" stop-color="#DEB077"/>
<stop offset="0.77" stop-color="#DAA35F"/>
<stop offset="0.8" stop-color="#D79C52"/>
<stop offset="0.84" stop-color="#BD8746"/>
<stop offset="0.95" stop-color="#805528"/>
<stop offset="1" stop-color="#68421D"/>
</linearGradient>
<linearGradient id="paint28_linear_1_1356" x1="74.6538" y1="1.62461" x2="74.6538" y2="79.3884" gradientUnits="userSpaceOnUse">
<stop stop-color="#D59647"/>
<stop offset="0.19" stop-color="#DBA868"/>
<stop offset="0.36" stop-color="#E0B580"/>
<stop offset="0.46" stop-color="#DAA35F"/>
<stop offset="0.54" stop-color="#D59647"/>
<stop offset="0.66" stop-color="#9A6830"/>
<stop offset="0.77" stop-color="#68421D"/>
<stop offset="0.91" stop-color="#D59647"/>
<stop offset="0.93" stop-color="#BD843E"/>
<stop offset="0.98" stop-color="#805426"/>
<stop offset="1" stop-color="#68421D"/>
</linearGradient>
<linearGradient id="paint29_linear_1_1356" x1="74.6134" y1="1.62222" x2="74.6134" y2="79.438" gradientUnits="userSpaceOnUse">
<stop stop-color="#D59647"/>
<stop offset="0.19" stop-color="#DBA868"/>
<stop offset="0.36" stop-color="#E0B580"/>
<stop offset="0.46" stop-color="#DAA35F"/>
<stop offset="0.54" stop-color="#D59647"/>
<stop offset="0.66" stop-color="#9A6830"/>
<stop offset="0.77" stop-color="#68421D"/>
<stop offset="0.91" stop-color="#D59647"/>
<stop offset="0.93" stop-color="#BD843E"/>
<stop offset="0.98" stop-color="#805426"/>
<stop offset="1" stop-color="#68421D"/>
</linearGradient>
<linearGradient id="paint30_linear_1_1356" x1="30.6127" y1="92.7062" x2="110.351" y2="91.0558" gradientUnits="userSpaceOnUse">
<stop stop-color="#D59647"/>
<stop offset="0.19" stop-color="#DBA868"/>
<stop offset="0.36" stop-color="#F0E088"/>
<stop offset="0.46" stop-color="#DAA35F"/>
<stop offset="0.54" stop-color="#D59647"/>
<stop offset="0.66" stop-color="#9A6830"/>
<stop offset="0.77" stop-color="#EFE188"/>
<stop offset="0.91" stop-color="#D59647"/>
<stop offset="0.93" stop-color="#BD843E"/>
<stop offset="0.98" stop-color="#805426"/>
<stop offset="1" stop-color="#68421D"/>
</linearGradient>
</defs>
</svg>
