<svg width="45" height="39" viewBox="0 0 45 39" fill="none" xmlns="http://www.w3.org/2000/svg">
<path d="M12.7 23.15C14.9 23.15 16.65 23.85 17.95 25.25C19.25 26.55 19.9 28.35 19.9 30.65C19.9 33.15 19.1 35.1 17.5 36.5C16 37.8 13.9 38.45 11.2 38.45C7.9 38.45 5.3 37.2 3.4 34.7C1.5 32.1 0.55 28.45 0.55 23.75C0.55 19.35 1.5 15.3 3.4 11.6C5.4 7.89999 8.3 4.19999 12.1 0.499995C12.2 0.399996 12.35 0.349997 12.55 0.349997C12.85 0.349997 13.1 0.499998 13.3 0.8C13.5 1.1 13.5 1.35 13.3 1.55C8.4 6.54999 5.95 12.45 5.95 19.25C5.95 22.05 6.45 24.1 7.45 25.4C8.35 23.9 10.1 23.15 12.7 23.15ZM37.3 23.15C39.5 23.15 41.25 23.85 42.55 25.25C43.85 26.55 44.5 28.35 44.5 30.65C44.5 33.15 43.7 35.1 42.1 36.5C40.6 37.8 38.5 38.45 35.8 38.45C32.5 38.45 29.9 37.2 28 34.7C26.1 32.1 25.15 28.45 25.15 23.75C25.15 19.35 26.1 15.3 28 11.6C30 7.89999 32.9 4.19999 36.7 0.499995C36.8 0.399996 36.95 0.349997 37.15 0.349997C37.45 0.349997 37.7 0.499998 37.9 0.8C38.1 1.1 38.1 1.35 37.9 1.55C33 6.54999 30.55 12.45 30.55 19.25C30.55 22.05 31.05 24.1 32.05 25.4C32.95 23.9 34.7 23.15 37.3 23.15Z" fill="white" fill-opacity="0.3"/>
<path d="M12.7 23.15C14.9 23.15 16.65 23.85 17.95 25.25C19.25 26.55 19.9 28.35 19.9 30.65C19.9 33.15 19.1 35.1 17.5 36.5C16 37.8 13.9 38.45 11.2 38.45C7.9 38.45 5.3 37.2 3.4 34.7C1.5 32.1 0.55 28.45 0.55 23.75C0.55 19.35 1.5 15.3 3.4 11.6C5.4 7.89999 8.3 4.19999 12.1 0.499995C12.2 0.399996 12.35 0.349997 12.55 0.349997C12.85 0.349997 13.1 0.499998 13.3 0.8C13.5 1.1 13.5 1.35 13.3 1.55C8.4 6.54999 5.95 12.45 5.95 19.25C5.95 22.05 6.45 24.1 7.45 25.4C8.35 23.9 10.1 23.15 12.7 23.15ZM37.3 23.15C39.5 23.15 41.25 23.85 42.55 25.25C43.85 26.55 44.5 28.35 44.5 30.65C44.5 33.15 43.7 35.1 42.1 36.5C40.6 37.8 38.5 38.45 35.8 38.45C32.5 38.45 29.9 37.2 28 34.7C26.1 32.1 25.15 28.45 25.15 23.75C25.15 19.35 26.1 15.3 28 11.6C30 7.89999 32.9 4.19999 36.7 0.499995C36.8 0.399996 36.95 0.349997 37.15 0.349997C37.45 0.349997 37.7 0.499998 37.9 0.8C38.1 1.1 38.1 1.35 37.9 1.55C33 6.54999 30.55 12.45 30.55 19.25C30.55 22.05 31.05 24.1 32.05 25.4C32.95 23.9 34.7 23.15 37.3 23.15Z" fill="url(#paint0_linear_1_1437)"/>
<defs>
<linearGradient id="paint0_linear_1_1437" x1="42.5" y1="73" x2="14" y2="2.11726e-06" gradientUnits="userSpaceOnUse">
<stop stop-color="#D59647"/>
<stop offset="0.19" stop-color="#DBA868"/>
<stop offset="0.36" stop-color="#E0B580"/>
<stop offset="0.46" stop-color="#DAA35F"/>
<stop offset="0.54" stop-color="#D59647"/>
<stop offset="0.66" stop-color="#9A6830"/>
<stop offset="0.77" stop-color="#68421D"/>
<stop offset="0.91" stop-color="#D59647"/>
<stop offset="0.93" stop-color="#BD843E"/>
<stop offset="0.98" stop-color="#805426"/>
<stop offset="1" stop-color="#68421D"/>
</linearGradient>
</defs>
</svg>
