<svg width="45" height="40" viewBox="0 0 45 40" fill="none" xmlns="http://www.w3.org/2000/svg">
<path d="M33.85 0.949995C37.15 0.949995 39.75 2.25 41.65 4.85C43.55 7.35 44.5 10.95 44.5 15.65C44.5 20.05 43.5 24.1 41.5 27.8C39.6 31.5 36.75 35.2 32.95 38.9C32.85 39 32.7 39.05 32.5 39.05C32.2 39.05 31.95 38.9 31.75 38.6C31.55 38.3 31.55 38.05 31.75 37.85C36.65 32.85 39.1 26.95 39.1 20.15C39.1 17.35 38.6 15.3 37.6 14C36.7 15.5 34.95 16.25 32.35 16.25C30.15 16.25 28.4 15.6 27.1 14.3C25.8 12.9 25.15 11.05 25.15 8.74999C25.15 6.25 25.9 4.35 27.4 3.04999C29 1.64999 31.15 0.949995 33.85 0.949995ZM9.25 0.949995C12.55 0.949995 15.15 2.25 17.05 4.85C18.95 7.35 19.9 10.95 19.9 15.65C19.9 20.05 18.9 24.1 16.9 27.8C15 31.5 12.15 35.2 8.35 38.9C8.25 39 8.1 39.05 7.9 39.05C7.6 39.05 7.35 38.9 7.15 38.6C6.95 38.3 6.95 38.05 7.15 37.85C12.05 32.85 14.5 26.95 14.5 20.15C14.5 17.35 14 15.3 13 14C12.1 15.5 10.35 16.25 7.75 16.25C5.55 16.25 3.8 15.6 2.5 14.3C1.2 12.9 0.55 11.05 0.55 8.74999C0.55 6.25 1.3 4.35 2.8 3.04999C4.4 1.64999 6.55 0.949995 9.25 0.949995Z" fill="white" fill-opacity="0.3"/>
<path d="M33.85 0.949995C37.15 0.949995 39.75 2.25 41.65 4.85C43.55 7.35 44.5 10.95 44.5 15.65C44.5 20.05 43.5 24.1 41.5 27.8C39.6 31.5 36.75 35.2 32.95 38.9C32.85 39 32.7 39.05 32.5 39.05C32.2 39.05 31.95 38.9 31.75 38.6C31.55 38.3 31.55 38.05 31.75 37.85C36.65 32.85 39.1 26.95 39.1 20.15C39.1 17.35 38.6 15.3 37.6 14C36.7 15.5 34.95 16.25 32.35 16.25C30.15 16.25 28.4 15.6 27.1 14.3C25.8 12.9 25.15 11.05 25.15 8.74999C25.15 6.25 25.9 4.35 27.4 3.04999C29 1.64999 31.15 0.949995 33.85 0.949995ZM9.25 0.949995C12.55 0.949995 15.15 2.25 17.05 4.85C18.95 7.35 19.9 10.95 19.9 15.65C19.9 20.05 18.9 24.1 16.9 27.8C15 31.5 12.15 35.2 8.35 38.9C8.25 39 8.1 39.05 7.9 39.05C7.6 39.05 7.35 38.9 7.15 38.6C6.95 38.3 6.95 38.05 7.15 37.85C12.05 32.85 14.5 26.95 14.5 20.15C14.5 17.35 14 15.3 13 14C12.1 15.5 10.35 16.25 7.75 16.25C5.55 16.25 3.8 15.6 2.5 14.3C1.2 12.9 0.55 11.05 0.55 8.74999C0.55 6.25 1.3 4.35 2.8 3.04999C4.4 1.64999 6.55 0.949995 9.25 0.949995Z" fill="url(#paint0_linear_1_1438)"/>
<defs>
<linearGradient id="paint0_linear_1_1438" x1="-6.5" y1="-3" x2="23" y2="39.9303" gradientUnits="userSpaceOnUse">
<stop stop-color="#D59647"/>
<stop offset="0.19" stop-color="#DBA868"/>
<stop offset="0.36" stop-color="#E0B580"/>
<stop offset="0.46" stop-color="#DAA35F"/>
<stop offset="0.54" stop-color="#D59647"/>
<stop offset="0.66" stop-color="#9A6830"/>
<stop offset="0.77" stop-color="#68421D"/>
<stop offset="0.91" stop-color="#D59647"/>
<stop offset="0.93" stop-color="#BD843E"/>
<stop offset="0.98" stop-color="#805426"/>
<stop offset="1" stop-color="#68421D"/>
</linearGradient>
</defs>
</svg>
